<svg xmlns="http://www.w3.org/2000/svg" xmlns:xlink="http://www.w3.org/1999/xlink" width="523" zoomAndPan="magnify" viewBox="0 0 392.25 314.250004" height="419" preserveAspectRatio="xMidYMid meet" version="1.0"><defs><g/><clipPath id="d3d801d911"><path d="M 101 30 L 358 30 L 358 277 L 101 277 Z M 101 30 " clip-rule="nonzero"/></clipPath><clipPath id="f2b772cecd"><path d="M 310.570312 312.851562 L 67.367188 230.90625 L 145.25 -0.242188 L 388.453125 81.699219 Z M 310.570312 312.851562 " clip-rule="nonzero"/></clipPath><clipPath id="a6bc02b1b4"><path d="M 310.570312 312.851562 L 67.367188 230.90625 L 145.25 -0.242188 L 388.453125 81.699219 Z M 310.570312 312.851562 " clip-rule="nonzero"/></clipPath><clipPath id="64de658177"><path d="M 310.570312 312.851562 L 67.367188 230.90625 L 145.25 -0.242188 L 388.453125 81.699219 Z M 310.570312 312.851562 " clip-rule="nonzero"/></clipPath><clipPath id="bfc05844cd"><path d="M 310.640625 313.207031 L 66.238281 230.859375 L 144.515625 -1.464844 L 388.917969 80.882812 Z M 310.640625 313.207031 " clip-rule="nonzero"/></clipPath><clipPath id="5caed5d549"><path d="M 310.636719 312.660156 L 67.371094 230.695312 L 145.132812 -0.09375 L 388.394531 81.871094 Z M 310.636719 312.660156 " clip-rule="nonzero"/></clipPath></defs><g fill="#66b3d6" fill-opacity="1"><g transform="translate(20.755202, 149.679549)"><g><path d="M 10.957031 -35.074219 C 8.132812 -35.074219 6.027344 -34.308594 4.640625 -32.824219 C 3.207031 -31.292969 2.535156 -29.1875 2.535156 -26.460938 C 2.535156 -25.457031 2.632812 -24.546875 2.824219 -23.6875 C 3.015625 -22.824219 3.398438 -21.964844 3.875 -21.101562 C 4.355469 -20.242188 5.023438 -19.378906 5.835938 -18.519531 C 6.601562 -17.65625 7.609375 -16.699219 8.804688 -15.742188 C 9.714844 -14.976562 10.480469 -14.257812 11.101562 -13.589844 C 11.722656 -12.917969 12.25 -12.34375 12.632812 -11.769531 C 13.015625 -11.195312 13.253906 -10.621094 13.445312 -10.046875 C 13.589844 -9.472656 13.683594 -8.851562 13.683594 -8.277344 C 13.683594 -7.035156 13.398438 -6.171875 12.871094 -5.695312 C 12.34375 -5.167969 11.628906 -4.929688 10.71875 -4.929688 C 9.761719 -4.929688 9.042969 -5.167969 8.566406 -5.695312 C 8.039062 -6.171875 7.800781 -7.035156 7.800781 -8.277344 L 7.800781 -9.664062 C 7.800781 -9.953125 7.65625 -10.191406 7.464844 -10.382812 C 7.226562 -10.574219 6.984375 -10.71875 6.699219 -10.71875 L 3.445312 -10.71875 C 3.15625 -10.71875 2.871094 -10.574219 2.679688 -10.382812 C 2.488281 -10.191406 2.390625 -9.953125 2.390625 -9.664062 L 2.390625 -8.613281 C 2.390625 -5.835938 3.109375 -3.683594 4.546875 -2.199219 C 5.980469 -0.71875 8.085938 0 10.910156 0 C 13.683594 0 15.789062 -0.71875 17.226562 -2.199219 C 18.660156 -3.683594 19.378906 -5.835938 19.378906 -8.613281 C 19.378906 -9.570312 19.234375 -10.527344 19.042969 -11.386719 C 18.851562 -12.25 18.519531 -13.0625 18.039062 -13.925781 C 17.5625 -14.785156 16.890625 -15.648438 16.078125 -16.507812 C 15.265625 -17.371094 14.257812 -18.328125 13.109375 -19.332031 C 12.152344 -20.097656 11.386719 -20.765625 10.765625 -21.4375 C 10.144531 -22.105469 9.664062 -22.730469 9.28125 -23.304688 C 8.898438 -23.878906 8.613281 -24.402344 8.46875 -24.976562 C 8.277344 -25.550781 8.230469 -26.125 8.230469 -26.796875 C 8.230469 -27.992188 8.46875 -28.855469 8.949219 -29.378906 C 9.425781 -29.90625 10.144531 -30.195312 11.101562 -30.195312 C 12.011719 -30.195312 12.726562 -29.90625 13.207031 -29.378906 C 13.683594 -28.855469 13.925781 -27.992188 13.925781 -26.796875 L 13.925781 -26.460938 C 13.925781 -26.125 14.019531 -25.839844 14.210938 -25.648438 C 14.402344 -25.457031 14.691406 -25.359375 15.023438 -25.359375 L 18.230469 -25.359375 C 18.519531 -25.359375 18.804688 -25.457031 18.996094 -25.648438 C 19.1875 -25.839844 19.332031 -26.125 19.332031 -26.460938 C 19.332031 -29.1875 18.613281 -31.292969 17.226562 -32.824219 C 15.789062 -34.308594 13.734375 -35.074219 10.957031 -35.074219 Z M 10.957031 -35.074219 "/></g></g></g><g fill="#66b3d6" fill-opacity="1"><g transform="translate(42.526437, 149.679549)"><g><path d="M 17.371094 -33.6875 L 17.371094 -21.628906 C 17.371094 -21.246094 17.226562 -20.910156 16.9375 -20.625 C 16.652344 -20.335938 16.363281 -20.242188 15.980469 -20.242188 L 9.1875 -20.242188 C 8.804688 -20.242188 8.46875 -20.335938 8.183594 -20.625 C 7.894531 -20.910156 7.800781 -21.246094 7.800781 -21.628906 L 7.800781 -33.6875 C 7.800781 -34.070312 7.65625 -34.355469 7.367188 -34.644531 C 7.082031 -34.929688 6.792969 -35.074219 6.410156 -35.074219 L 3.78125 -35.074219 C 3.398438 -35.074219 3.0625 -34.929688 2.773438 -34.644531 C 2.488281 -34.355469 2.390625 -34.070312 2.390625 -33.6875 L 2.390625 -1.386719 C 2.390625 -1.003906 2.488281 -0.667969 2.773438 -0.382812 C 3.0625 -0.09375 3.398438 0 3.78125 0 L 6.410156 0 C 6.792969 0 7.082031 -0.09375 7.367188 -0.382812 C 7.65625 -0.667969 7.800781 -1.003906 7.800781 -1.386719 L 7.800781 -13.445312 C 7.800781 -13.828125 7.894531 -14.117188 8.183594 -14.402344 C 8.46875 -14.691406 8.804688 -14.832031 9.1875 -14.832031 L 15.980469 -14.832031 C 16.363281 -14.832031 16.652344 -14.691406 16.9375 -14.402344 C 17.226562 -14.117188 17.371094 -13.828125 17.371094 -13.445312 L 17.371094 -1.386719 C 17.371094 -1.003906 17.464844 -0.667969 17.753906 -0.382812 C 18.039062 -0.09375 18.375 0 18.804688 0 L 21.390625 0 C 21.773438 0 22.058594 -0.09375 22.347656 -0.382812 C 22.632812 -0.667969 22.777344 -1.003906 22.777344 -1.386719 L 22.777344 -33.6875 C 22.777344 -34.070312 22.632812 -34.355469 22.347656 -34.644531 C 22.058594 -34.929688 21.773438 -35.074219 21.390625 -35.074219 L 18.804688 -35.074219 C 18.375 -35.074219 18.039062 -34.929688 17.753906 -34.644531 C 17.464844 -34.355469 17.371094 -34.070312 17.371094 -33.6875 Z M 17.371094 -33.6875 "/></g></g></g><g fill="#66b3d6" fill-opacity="1"><g transform="translate(67.694957, 149.679549)"><g><path d="M 6.410156 -35.074219 L 3.78125 -35.074219 C 3.398438 -35.074219 3.0625 -34.929688 2.773438 -34.644531 C 2.488281 -34.355469 2.390625 -34.070312 2.390625 -33.6875 L 2.390625 -1.386719 C 2.390625 -1.003906 2.488281 -0.667969 2.773438 -0.382812 C 3.0625 -0.09375 3.398438 0 3.78125 0 L 6.410156 0 C 6.792969 0 7.082031 -0.09375 7.367188 -0.382812 C 7.65625 -0.667969 7.800781 -1.003906 7.800781 -1.386719 L 7.800781 -33.6875 C 7.800781 -34.070312 7.65625 -34.355469 7.367188 -34.644531 C 7.082031 -34.929688 6.792969 -35.074219 6.410156 -35.074219 Z M 6.410156 -35.074219 "/></g></g></g><g fill="#66b3d6" fill-opacity="1"><g transform="translate(77.886766, 149.679549)"><g/></g></g><g fill="#66b3d6" fill-opacity="1"><g transform="translate(92.24143, 149.679549)"><g><path d="M 16.988281 -5.40625 L 9.1875 -5.40625 C 8.804688 -5.40625 8.46875 -5.503906 8.183594 -5.789062 C 7.894531 -6.078125 7.800781 -6.410156 7.800781 -6.792969 L 7.800781 -33.6875 C 7.800781 -34.070312 7.65625 -34.355469 7.367188 -34.644531 C 7.082031 -34.929688 6.792969 -35.074219 6.410156 -35.074219 L 3.78125 -35.074219 C 3.398438 -35.074219 3.0625 -34.929688 2.773438 -34.644531 C 2.488281 -34.355469 2.390625 -34.070312 2.390625 -33.6875 L 2.390625 -1.386719 C 2.390625 -1.003906 2.488281 -0.667969 2.773438 -0.382812 C 3.0625 -0.09375 3.398438 0 3.78125 0 L 16.988281 0 C 17.371094 0 17.65625 -0.09375 17.945312 -0.382812 C 18.230469 -0.667969 18.375 -1.003906 18.375 -1.386719 L 18.375 -4.019531 C 18.375 -4.402344 18.230469 -4.6875 17.945312 -4.976562 C 17.65625 -5.261719 17.371094 -5.40625 16.988281 -5.40625 Z M 16.988281 -5.40625 "/></g></g></g><g fill="#66b3d6" fill-opacity="1"><g transform="translate(113.007843, 149.679549)"><g><path d="M 6.410156 -35.074219 L 3.78125 -35.074219 C 3.398438 -35.074219 3.0625 -34.929688 2.773438 -34.644531 C 2.488281 -34.355469 2.390625 -34.070312 2.390625 -33.6875 L 2.390625 -1.386719 C 2.390625 -1.003906 2.488281 -0.667969 2.773438 -0.382812 C 3.0625 -0.09375 3.398438 0 3.78125 0 L 6.410156 0 C 6.792969 0 7.082031 -0.09375 7.367188 -0.382812 C 7.65625 -0.667969 7.800781 -1.003906 7.800781 -1.386719 L 7.800781 -33.6875 C 7.800781 -34.070312 7.65625 -34.355469 7.367188 -34.644531 C 7.082031 -34.929688 6.792969 -35.074219 6.410156 -35.074219 Z M 6.410156 -35.074219 "/></g></g></g><g fill="#66b3d6" fill-opacity="1"><g transform="translate(123.199652, 149.679549)"><g><path d="M 23.304688 -35.074219 L 20.71875 -35.074219 C 20.335938 -35.074219 20 -34.929688 19.714844 -34.644531 C 19.425781 -34.355469 19.285156 -34.070312 19.285156 -33.6875 L 19.285156 -14.019531 C 19.285156 -13.734375 19.140625 -13.542969 18.902344 -13.492188 C 18.566406 -13.398438 18.375 -13.492188 18.277344 -13.78125 L 8.707031 -34.261719 C 8.46875 -34.789062 8.039062 -35.074219 7.464844 -35.074219 L 3.78125 -35.074219 C 3.398438 -35.074219 3.0625 -34.929688 2.773438 -34.644531 C 2.488281 -34.355469 2.390625 -34.070312 2.390625 -33.6875 L 2.390625 -1.386719 C 2.390625 -1.003906 2.488281 -0.667969 2.773438 -0.382812 C 3.0625 -0.09375 3.398438 0 3.78125 0 L 6.363281 0 C 6.746094 0 7.082031 -0.09375 7.367188 -0.382812 C 7.65625 -0.667969 7.800781 -1.003906 7.800781 -1.386719 L 7.800781 -21.054688 C 7.800781 -21.339844 7.941406 -21.484375 8.230469 -21.582031 C 8.515625 -21.628906 8.707031 -21.53125 8.804688 -21.292969 L 18.375 -0.8125 C 18.613281 -0.238281 19.042969 0 19.617188 0 L 23.304688 0 C 23.6875 0 24.019531 -0.144531 24.308594 -0.429688 C 24.546875 -0.667969 24.691406 -1.003906 24.691406 -1.386719 L 24.691406 -33.6875 C 24.691406 -34.070312 24.546875 -34.355469 24.261719 -34.644531 C 23.972656 -34.929688 23.6875 -35.074219 23.304688 -35.074219 Z M 23.304688 -35.074219 "/></g></g></g><g fill="#66b3d6" fill-opacity="1"><g transform="translate(150.282131, 149.679549)"><g/></g></g><g fill="#66b3d6" fill-opacity="1"><g transform="translate(164.636795, 149.679549)"><g><path d="M 10.238281 -18.421875 L 2.582031 -2.007812 C 2.296875 -1.53125 2.34375 -1.101562 2.679688 -0.621094 C 2.917969 -0.191406 3.300781 0 3.828125 0 L 6.699219 0 C 7.273438 0 7.703125 -0.238281 7.992188 -0.8125 L 12.917969 -11.386719 C 12.96875 -11.53125 13.109375 -11.628906 13.300781 -11.628906 C 13.445312 -11.628906 13.542969 -11.53125 13.636719 -11.386719 L 18.566406 -0.8125 C 18.804688 -0.238281 19.234375 0 19.859375 0 L 22.730469 0 C 23.207031 0 23.589844 -0.191406 23.878906 -0.621094 C 24.164062 -1.101562 24.210938 -1.53125 23.972656 -2.007812 L 16.316406 -18.421875 C 16.269531 -18.519531 16.269531 -18.613281 16.316406 -18.757812 L 23.015625 -33.066406 C 23.207031 -33.542969 23.207031 -34.023438 22.921875 -34.40625 C 22.632812 -34.835938 22.25 -35.074219 21.773438 -35.074219 L 18.902344 -35.074219 C 18.277344 -35.074219 17.847656 -34.789062 17.609375 -34.261719 L 13.636719 -25.742188 C 13.542969 -25.550781 13.445312 -25.503906 13.300781 -25.503906 C 13.109375 -25.503906 12.96875 -25.550781 12.917969 -25.742188 L 8.949219 -34.261719 C 8.660156 -34.789062 8.230469 -35.074219 7.65625 -35.074219 L 4.785156 -35.074219 C 4.257812 -35.074219 3.875 -34.835938 3.636719 -34.40625 C 3.347656 -34.023438 3.300781 -33.542969 3.539062 -33.066406 L 10.238281 -18.757812 C 10.238281 -18.613281 10.238281 -18.519531 10.238281 -18.421875 Z M 10.238281 -18.421875 "/></g></g></g><g fill="#66b3d6" fill-opacity="1"><g transform="translate(191.192932, 149.679549)"><g><path d="M 6.410156 -35.074219 L 3.78125 -35.074219 C 3.398438 -35.074219 3.0625 -34.929688 2.773438 -34.644531 C 2.488281 -34.355469 2.390625 -34.070312 2.390625 -33.6875 L 2.390625 -1.386719 C 2.390625 -1.003906 2.488281 -0.667969 2.773438 -0.382812 C 3.0625 -0.09375 3.398438 0 3.78125 0 L 6.410156 0 C 6.792969 0 7.082031 -0.09375 7.367188 -0.382812 C 7.65625 -0.667969 7.800781 -1.003906 7.800781 -1.386719 L 7.800781 -33.6875 C 7.800781 -34.070312 7.65625 -34.355469 7.367188 -34.644531 C 7.082031 -34.929688 6.792969 -35.074219 6.410156 -35.074219 Z M 6.410156 -35.074219 "/></g></g></g><g clip-path="url(#d3d801d911)"><g clip-path="url(#f2b772cecd)"><g clip-path="url(#a6bc02b1b4)"><g clip-path="url(#64de658177)"><g clip-path="url(#bfc05844cd)"><g clip-path="url(#5caed5d549)"><path stroke-linecap="round" transform="matrix(-2.720923, -0.916769, 0.916382, -2.719774, 450.904303, 1362.500052)" fill="none" stroke-linejoin="round" d="M 214.392954 332.269294 C 182.983574 327.911103 152.590385 362.653857 167.837871 393.067007 C 173.857713 405.075683 186.529319 411.778711 199.233372 414.281289 C 215.097294 417.406335 232.202514 414.310557 243.047268 401.560781 C 261.949633 379.341779 249.457016 337.133433 214.392954 332.269294 Z M 214.392954 332.269294 " stroke="#cbc6a3" stroke-width="1.34" stroke-opacity="1" stroke-miterlimit="1.5"/></g></g></g></g></g></g><g fill="#eb9197" fill-opacity="1"><g transform="translate(146.286748, 203.534537)"><g><path d="M 5.023438 -10.253906 C 5.6875 -10.613281 6.003906 -11.171875 6.011719 -11.875 C 6.042969 -12.824219 6.378906 -13.785156 6.410156 -14.734375 C 6.664062 -16.425781 6.734375 -18.015625 5.769531 -19.515625 C 5.605469 -19.816406 5.441406 -20.117188 5.402344 -20.484375 C 5.125 -21.421875 4.929688 -21.78125 4.628906 -22.628906 C 4.296875 -23.382812 4.296875 -23.382812 5.019531 -23.773438 C 6.523438 -24.585938 7.074219 -25.582031 7.695312 -26.152344 C 8.261719 -26.691406 8.730469 -27.257812 8.984375 -27.9375 C 9.101562 -28.15625 9.265625 -28.710938 8.910156 -29.375 C 8.679688 -29.792969 8.464844 -29.910156 8.089844 -29.164062 C 7.457031 -27.890625 7.160156 -27.574219 6.65625 -27.070312 C 6.09375 -26.53125 5.226562 -25.984375 4.082031 -25.367188 C 3.421875 -25.007812 3.066406 -25.515625 2.589844 -26.113281 C 2.019531 -26.738281 1.421875 -27.269531 0.882812 -27.832031 C 0.226562 -28.332031 -0.71875 -28.210938 -1.460938 -28.429688 C -1.492188 -28.492188 -1.585938 -28.519531 -1.585938 -28.519531 C -3.433594 -28.917969 -4.71875 -27.988281 -5.941406 -26.941406 C -6.296875 -26.59375 -6.738281 -26.121094 -6.9375 -25.625 C -6.933594 -25.472656 -7.140625 -25.28125 -7.355469 -25.242188 C -8.269531 -25.214844 -9.015625 -24.578125 -9.964844 -24.609375 C -10.515625 -24.621094 -10.910156 -24.488281 -11.425781 -24.441406 C -11.886719 -24.425781 -12 -24.207031 -12.050781 -23.871094 C -12.101562 -23.53125 -12.125 -23.285156 -11.960938 -22.984375 C -11.707031 -22.65625 -11.632812 -22.230469 -11.523438 -21.746094 C -11.3125 -20.925781 -11.105469 -20.109375 -10.953125 -19.257812 C -10.21875 -16.3125 -8.96875 -13.570312 -6.726562 -11.4375 C -5.277344 -10.046875 -3.773438 -8.996094 -1.660156 -8.816406 C 0.734375 -8.558594 2.949219 -9.210938 5.023438 -10.253906 Z M -0.113281 -23.640625 C -1.179688 -23.453125 -2.414062 -23.871094 -2.925781 -24.527344 C -3.277344 -25.039062 -3.472656 -25.398438 -3.15625 -25.960938 C -2.625 -26.558594 -2.078125 -26.699219 -1.5 -26.777344 C -0.128906 -26.972656 0.996094 -26.183594 1.546875 -25.316406 C 2.191406 -24.265625 2.195312 -24.113281 -0.113281 -23.640625 Z M 3.632812 -12.6875 C 3.238281 -11.542969 2.242188 -11.234375 1.390625 -11.941406 C 1.140625 -12.117188 1.011719 -12.359375 0.730469 -12.59375 C 0.121094 -13.433594 -0.339844 -14.425781 -0.40625 -15.554688 C -0.566406 -16.714844 -0.992188 -17.648438 -1.332031 -18.707031 C -1.667969 -19.613281 -1.730469 -20.589844 -2.183594 -21.433594 C -2.378906 -21.792969 -2.203125 -22.042969 -1.652344 -22.03125 C -0.703125 -22 0.304688 -22.003906 1.273438 -22.371094 L 1.546875 -22.441406 C 2.96875 -22.820312 3.03125 -22.855469 3.375 -21.640625 C 4.058594 -19.371094 4.445312 -16.933594 4.1875 -14.386719 C 4.117188 -13.804688 3.890625 -13.214844 3.632812 -12.6875 Z M 3.632812 -12.6875 "/></g></g></g><g fill="#eb9197" fill-opacity="1"><g transform="translate(163.905455, 194.008828)"><g><path d="M 3.742188 -9.171875 C 6.539062 -9.753906 8.945312 -11.054688 10.015625 -13.960938 C 10.238281 -14.550781 10.558594 -15.113281 10.75 -15.761719 C 11.707031 -19.308594 11.664062 -20.683594 11.285156 -27.707031 C 11.21875 -28.835938 11.011719 -28.644531 10.367188 -28.6875 C 9.632812 -28.753906 9.832031 -28.242188 9.808594 -27.996094 C 10.261719 -21.554688 10.09375 -21 9.953125 -19.679688 C 9.894531 -18.636719 9.773438 -17.71875 9.375 -16.726562 C 8.292969 -14.273438 7.703125 -12.632812 4.972656 -11.933594 C 4.453125 -11.886719 4.203125 -12.0625 4.132812 -12.335938 C 4.007812 -12.425781 3.941406 -12.542969 3.9375 -12.699219 L 3.742188 -13.058594 C 3.503906 -14.792969 3.269531 -16.378906 3.519531 -18.066406 C 3.527344 -18.769531 3.445312 -19.503906 3.332031 -20.140625 C 3.132812 -20.65625 3.050781 -21.234375 3.039062 -21.691406 C 3.136719 -22.367188 2.933594 -23.035156 2.789062 -23.734375 C 2.570312 -24.859375 1.988281 -25.789062 1.078125 -26.460938 C 0.140625 -27.195312 -1.039062 -27.648438 -2.21875 -27.242188 C -3.578125 -26.742188 -4.960938 -25.992188 -5.464844 -24.480469 C -5.746094 -23.703125 -6.117188 -22.957031 -6.773438 -22.449219 C -7.042969 -23.234375 -7.40625 -24.050781 -7.675781 -24.835938 C -7.988281 -25.988281 -8.664062 -26.945312 -9.488281 -27.898438 C -10.0625 -28.675781 -10.78125 -29.140625 -11.761719 -29.230469 C -11.976562 -29.195312 -12.160156 -29.25 -12.285156 -29.335938 C -12.753906 -29.628906 -13.117188 -29.433594 -13.4375 -29.027344 C -13.796875 -28.675781 -14.175781 -28.085938 -14.714844 -27.792969 C -15.257812 -27.5 -15.421875 -26.941406 -15.34375 -26.363281 C -15.226562 -24.714844 -14.875 -23.199219 -13.941406 -21.761719 C -13.777344 -21.460938 -13.464844 -21.164062 -13.148438 -20.867188 C -12.078125 -19.894531 -10.796875 -19.109375 -9.226562 -18.792969 C -8.242188 -18.546875 -7.195312 -18.335938 -6.167969 -18.734375 C -5.984375 -18.832031 -5.773438 -18.871094 -5.558594 -18.910156 C -5.074219 -19.015625 -4.882812 -18.808594 -4.871094 -18.347656 C -4.855469 -17.890625 -4.6875 -17.4375 -4.582031 -16.953125 C -4.21875 -14.273438 -2.683594 -12.148438 -0.703125 -10.5 C 0.644531 -9.441406 2.132812 -8.847656 3.742188 -9.171875 Z M 3.742188 -9.171875 "/></g></g></g><g fill="#eb9197" fill-opacity="1"><g transform="translate(212.406338, 208.340196)"><g><path d="M 13.488281 -18.496094 C 14.699219 -20.714844 15.578125 -22.875 15.6875 -25.34375 C 16.464844 -27.691406 16.265625 -28.066406 16.1875 -32 C 15.964844 -35.972656 15.351562 -40.222656 14.890625 -42.859375 C 14.714844 -43.851562 14.945312 -44.09375 13.507812 -44.523438 C 12.792969 -44.738281 12.519531 -44.347656 12.691406 -43.359375 C 12.75 -43.03125 12.671875 -42.503906 12.6875 -42.03125 C 12.792969 -40.28125 12.878906 -39.003906 12.882812 -37.4375 C 13.15625 -36.261719 13.566406 -30.824219 13.683594 -30.164062 C 13.875 -28.699219 12.816406 -26.199219 12.632812 -24.535156 C 12.089844 -22.195312 11.082031 -19.601562 8.109375 -20.644531 C 7.257812 -20.664062 6.765625 -21.125 6.136719 -21.625 C 5.410156 -22.078125 4.734375 -22.433594 4.382812 -23.085938 C 2.453125 -25.539062 2.84375 -23.699219 1.664062 -26.554688 C 1.101562 -27.816406 0.582031 -29.222656 -0.691406 -30.460938 C -1.582031 -31.667969 -1.289062 -32.910156 -1.546875 -36.503906 C -1.765625 -38.914062 -2.316406 -41.265625 -2.960938 -43.570312 C -3.113281 -45.414062 -3.648438 -47.292969 -4.46875 -49.257812 C -5.242188 -52.695312 -6.246094 -55.886719 -7.527344 -58.925781 C -8.15625 -60.753906 -8.683594 -62.398438 -9.683594 -64.023438 C -10.597656 -65.941406 -11.1875 -68.148438 -12.757812 -69.710938 C -13.296875 -70.261719 -14.171875 -70.992188 -14.949219 -71.535156 C -15.890625 -72.835938 -17.707031 -73.296875 -19.390625 -72.628906 C -20.832031 -71.726562 -22.042969 -71.074219 -23.082031 -69.425781 C -23.160156 -68.902344 -23.660156 -68.269531 -24.035156 -68.070312 C -25.289062 -67.269531 -26.113281 -66.34375 -27.222656 -65.503906 C -27.632812 -64.921875 -27.847656 -64.203125 -27.304688 -63.652344 C -26.808594 -62.957031 -26.644531 -62.203125 -26.757812 -61.296875 C -26.410156 -59.316406 -25.933594 -57.769531 -25.6875 -55.976562 C -25.1875 -53.714844 -24.738281 -51.546875 -24.101562 -49.484375 L -23.066406 -46.671875 C -22.964844 -46.484375 -22.8125 -46.207031 -22.898438 -45.917969 C -22.832031 -45.351562 -22.351562 -45.128906 -22.25 -44.941406 C -21.984375 -44.003906 -21.859375 -43.105469 -21.214844 -42.132812 L -21.207031 -41.894531 C -19.503906 -37.636719 -20.144531 -38.375 -19.109375 -37.125 C -18.933594 -36.136719 -17.105469 -32.308594 -16.273438 -31.433594 C -16.207031 -30.867188 -16.003906 -30.492188 -15.703125 -29.933594 L -14.199219 -27.375 C -12.59375 -24.628906 -8.578125 -19.210938 -7.660156 -18.625 C -5.761719 -17.121094 -3.851562 -15.144531 -3.421875 -15.015625 C -0.71875 -13.582031 -0.675781 -13.726562 2.511719 -13.402344 C 6.550781 -13.058594 10.976562 -15.570312 13.488281 -18.496094 Z M -5.433594 -39.460938 C -5.65625 -38.980469 -6.773438 -41.265625 -6.925781 -41.546875 C -7.210938 -41.632812 -8.105469 -44.402344 -8.710938 -45.519531 L -12.316406 -51.519531 C -14.777344 -55.851562 -16.164062 -60.640625 -17.742188 -65.570312 L -17.558594 -65.667969 C -18.246094 -66.5 -17.253906 -68.003906 -16.148438 -67.515625 C -11.621094 -65.386719 -10.710938 -60.578125 -9.523438 -56.160156 C -8.976562 -53.808594 -7.808594 -51.425781 -6.792969 -49.324219 C -5.710938 -46.65625 -5.960938 -45.558594 -5.398438 -42.734375 C -4.929688 -41.421875 -5.050781 -40.753906 -5.433594 -39.460938 Z M -5.433594 -39.460938 "/></g></g></g><g fill="#eb9197" fill-opacity="1"><g transform="translate(238.502932, 194.230843)"><g><path d="M -14.382812 -43.535156 L -13.636719 -43.9375 C -11.917969 -44.988281 -11.089844 -47.246094 -11.976562 -49.777344 C -12.476562 -52.035156 -13.355469 -54.332031 -14.371094 -56.433594 C -14.671875 -56.992188 -14.609375 -57.988281 -15.242188 -58.488281 C -15.570312 -58.433594 -16.011719 -58.796875 -16.304688 -59.121094 C -16.886719 -59.527344 -20.070312 -58.289062 -22.296875 -58.167969 C -23.242188 -58.140625 -24.003906 -58.210938 -24.351562 -57.296875 C -24.925781 -55.902344 -25.359375 -54.703125 -25.351562 -52.902344 C -25.433594 -51.050781 -25.085938 -49.070312 -24.414062 -47.386719 C -24.128906 -47.300781 -23.925781 -46.929688 -23.632812 -46.605469 C -22.855469 -46.0625 -22.308594 -45.273438 -21.289062 -44.5 C -18.710938 -42.402344 -17.027344 -41.746094 -14.382812 -43.535156 Z M 6.742188 -14.484375 C 8.234375 -15.292969 9.222656 -17.03125 9.421875 -18.222656 C 9.542969 -18.890625 9.453125 -20.167969 9.625 -20.742188 C 9.953125 -22.363281 10.335938 -23.65625 10.425781 -25.269531 C 10.703125 -26.988281 9.996094 -38.769531 9.65625 -40.511719 C 9.503906 -40.792969 9.589844 -41.078125 9.34375 -41.308594 C 9.246094 -41.496094 7.476562 -41.863281 7.609375 -40.730469 C 7.914062 -38.609375 8.34375 -26.675781 8.175781 -24.535156 C 7.964844 -22.253906 7.550781 -20.34375 6.671875 -18.183594 C 6.078125 -17.5 5.753906 -17.203125 4.980469 -17.75 C 4 -18.664062 3.304688 -19.734375 2.699219 -20.851562 C 1.886719 -22.578125 0.976562 -24.257812 0.308594 -25.941406 C -0.730469 -28.753906 -2.097656 -31.507812 -3.367188 -34.074219 C -3.734375 -35.199219 -4.042969 -35.996094 -4.546875 -36.929688 C -4.511719 -37.308594 -4.664062 -37.589844 -4.867188 -37.960938 C -5.160156 -38.285156 -5.546875 -38.554688 -5.972656 -38.449219 C -6.546875 -38.617188 -7.207031 -38.503906 -7.960938 -38.335938 C -9.988281 -38.082031 -12.199219 -37.488281 -14.179688 -37.140625 C -15.3125 -37.011719 -15.941406 -35.949219 -16.445312 -35.316406 C -16.988281 -34.539062 -16.59375 -34.03125 -16.089844 -33.097656 C -15.664062 -31.640625 -15.101562 -30.378906 -14.625 -28.832031 C -14.542969 -27.789062 -13.945312 -26.910156 -13.441406 -25.976562 C -13.089844 -25.324219 -12.914062 -24.335938 -12.75 -23.582031 C -11.851562 -22.140625 -11.09375 -20.742188 -9.90625 -19.214844 C -9.496094 -18.234375 -8.804688 -17.402344 -8.300781 -16.46875 C -7.898438 -15.722656 -7.402344 -15.027344 -6.726562 -14.671875 C -4.945312 -13.828125 -3.453125 -13.070312 -1.59375 -12.75 C -0.738281 -12.730469 0.113281 -12.710938 0.925781 -12.546875 C 3.15625 -12.425781 4.988281 -13.054688 6.742188 -14.484375 Z M 6.742188 -14.484375 "/></g></g></g><g fill="#eb9197" fill-opacity="1"><g transform="translate(259.380214, 182.943357)"><g><path d="M 8.132812 -15.480469 C 10.367188 -18.253906 12.027344 -21.199219 11.617188 -25.074219 C 11.605469 -25.546875 11.648438 -25.691406 11.875 -25.933594 C 12.089844 -26.652344 12.285156 -26.515625 13.296875 -25.980469 C 13.347656 -25.886719 13.441406 -25.9375 13.492188 -25.84375 C 14.746094 -25.078125 16.03125 -24.929688 17.316406 -24.78125 C 18.273438 -24.574219 20.195312 -25.253906 21.039062 -25.46875 C 21.609375 -25.535156 23.3125 -27.058594 23.390625 -27.582031 C 23.375 -28.054688 23.90625 -29.304688 24.355469 -30.03125 C 24.847656 -30.902344 25.265625 -34.136719 25.183594 -36.742188 C 25.203125 -39.160156 25.820312 -42.027344 24.5625 -47.246094 C 24.347656 -48.09375 24.644531 -49.097656 22.785156 -49.417969 C 21.308594 -49.703125 21.1875 -49.035156 21.503906 -48.003906 C 22.757812 -44.34375 22.253906 -42.386719 22.691406 -39.128906 C 22.878906 -37.664062 22.234375 -32.617188 22.292969 -32.289062 C 22.351562 -31.957031 21.671875 -30.988281 21.449219 -30.507812 C 20.503906 -28.914062 19.75 -28.746094 19.234375 -28.585938 C 16.507812 -27.835938 14.820312 -28.730469 13.652344 -31.109375 C 13.058594 -31.992188 12 -32.386719 11.546875 -33.222656 C 11.253906 -33.546875 11.152344 -33.734375 10.949219 -34.105469 C 10.941406 -34.34375 10.84375 -34.53125 10.792969 -34.621094 C 10.085938 -35.925781 9.574219 -37.097656 8.871094 -38.402344 C 8.8125 -38.730469 8.753906 -39.0625 8.933594 -39.398438 L 8.65625 -40.574219 C 8.355469 -41.132812 8.109375 -41.363281 7.363281 -40.960938 C 6.710938 -40.609375 5.96875 -40.203125 5.273438 -39.707031 C 4.710938 -39.40625 4.542969 -38.832031 4.84375 -38.273438 C 5.859375 -36.171875 6.402344 -34.054688 7.703125 -31.867188 C 8.003906 -31.308594 8.121094 -30.648438 8.238281 -29.988281 C 8.21875 -27.570312 8.347656 -25.109375 7.710938 -22.71875 C 7.328125 -21.425781 7.136719 -20 6.277344 -18.691406 C 5.78125 -17.820312 5.359375 -17.714844 4.449219 -18.0625 C 2.386719 -18.753906 0.460938 -19.640625 -0.121094 -21.613281 C -0.554688 -23.308594 -1.269531 -24.847656 -0.898438 -26.617188 C -0.949219 -26.707031 -0.90625 -26.851562 -0.957031 -26.945312 C -1.484375 -28.589844 -0.734375 -30.320312 -1.261719 -31.960938 C -1.21875 -32.105469 -1.269531 -32.199219 -1.175781 -32.25 C -0.453125 -33.363281 -0.351562 -34.738281 -0.347656 -36.066406 C -0.355469 -36.304688 -0.269531 -36.589844 -0.132812 -36.785156 C -0.0976562 -37.167969 0.03125 -37.597656 -0.0703125 -37.785156 C -0.296875 -38.867188 0.0117188 -39.636719 0.460938 -40.359375 C 0.957031 -41.230469 2.101562 -42.453125 2.367188 -43.078125 C 2.539062 -43.652344 2.617188 -44.175781 2.792969 -44.511719 C 3.195312 -45.332031 3.179688 -45.804688 2.496094 -46.398438 C 1.039062 -47.539062 -0.632812 -47.957031 -2.476562 -47.804688 C -3.425781 -47.773438 -4.085938 -47.65625 -4.890625 -47.585938 C -6.359375 -47.632812 -6.667969 -46.863281 -8.222656 -46.625 C -9.214844 -46.449219 -10.1875 -45.804688 -11.238281 -45.960938 C -11.667969 -46.089844 -12.035156 -45.648438 -11.925781 -45.226562 C -11.9375 -44.136719 -12.382812 -43.171875 -12.542969 -42.363281 C -13.386719 -39.015625 -14.320312 -35.621094 -14.113281 -32.117188 C -13.921875 -29.089844 -13.636719 -26.113281 -12.269531 -23.359375 C -11.253906 -21.257812 -9.066406 -15.210938 -4.136719 -13.664062 C -1.835938 -12.980469 0.632812 -12.867188 3.019531 -13.796875 C 4.46875 -14.460938 6.015625 -14.9375 7.523438 -15.269531 C 7.761719 -15.277344 7.945312 -15.378906 8.132812 -15.480469 Z M 8.132812 -15.480469 "/></g></g></g></svg>