<svg xmlns="http://www.w3.org/2000/svg" xmlns:xlink="http://www.w3.org/1999/xlink" width="519" zoomAndPan="magnify" viewBox="0 0 389.25 358.499998" height="478" preserveAspectRatio="xMidYMid meet" version="1.0"><defs><g/><clipPath id="05b813023a"><path d="M 46 87 L 367 87 L 367 284 L 46 284 Z M 46 87 " clip-rule="nonzero"/></clipPath><clipPath id="2d88435cb5"><path d="M 257.128906 357.238281 L 13.5625 183.261719 L 144.742188 -0.390625 L 388.308594 173.585938 Z M 257.128906 357.238281 " clip-rule="nonzero"/></clipPath><clipPath id="8d46621c25"><path d="M 257.128906 357.238281 L 13.5625 183.261719 L 144.742188 -0.390625 L 388.308594 173.585938 Z M 257.128906 357.238281 " clip-rule="nonzero"/></clipPath></defs><g clip-path="url(#05b813023a)"><g clip-path="url(#2d88435cb5)"><g clip-path="url(#8d46621c25)"><path fill="#1b3d2f" d="M 352.613281 222.761719 C 342.84375 236.019531 330.648438 246.730469 317.292969 256.203125 C 306.097656 264.144531 294.179688 270.730469 281.230469 275.332031 C 273.644531 278.039062 265.882812 280.0625 257.941406 281.402344 C 250 282.746094 242.003906 283.386719 233.953125 283.324219 C 215.363281 283.195312 197.199219 280.15625 179.199219 275.546875 C 165.121094 271.921875 151.199219 267.832031 137.4375 263.273438 C 128.21875 260.234375 119.164062 256.648438 110.839844 251.699219 C 103.601562 247.488281 96.785156 242.671875 90.398438 237.25 C 83.632812 231.410156 77.421875 225.03125 71.765625 218.113281 C 66.105469 211.195312 61.085938 203.839844 56.703125 196.050781 C 49.445312 183.160156 45.339844 169.371094 46.476562 154.34375 C 47.53125 140.382812 53.0625 128.488281 62.773438 118.453125 C 71.867188 109.058594 83.003906 102.949219 95.113281 98.449219 C 111.125 92.554688 127.855469 89.792969 144.785156 88.421875 C 177.363281 85.765625 209.367188 89.933594 240.972656 97.628906 C 268.707031 104.386719 295.148438 114.507812 320.304688 127.992188 C 327.265625 131.714844 333.882812 136.105469 340.550781 140.363281 C 347.128906 144.566406 352.460938 150.1875 356.933594 156.488281 C 365.210938 168.199219 368.136719 181.25 365.269531 195.375 C 364.242188 200.367188 362.660156 205.175781 360.523438 209.800781 C 358.386719 214.425781 355.75 218.746094 352.613281 222.761719 Z M 352.613281 222.761719 " fill-opacity="1" fill-rule="nonzero"/></g></g></g><g fill="#fcfaea" fill-opacity="1"><g transform="translate(69.978739, 252.480016)"><g><path d="M 34.203125 -108.765625 L 44.65625 -108.765625 L 44.65625 34.484375 L 34.203125 34.484375 Z M 34.203125 -108.765625 "/></g></g></g><g fill="#fcfaea" fill-opacity="1"><g transform="translate(148.831109, 252.480016)"><g><path d="M 27.90625 -13.308594 C 30.769531 -15.171875 33.203125 -17.171875 34.917969 -20.035156 C 37.351562 -22.324219 37.351562 -22.898438 39.785156 -27.621094 C 42.074219 -32.488281 44.078125 -37.925781 45.222656 -41.359375 C 45.652344 -42.648438 46.082031 -42.789062 44.652344 -44.222656 C 43.9375 -44.9375 43.363281 -44.652344 42.933594 -43.363281 C 42.789062 -42.933594 42.363281 -42.363281 42.074219 -41.789062 C 41.074219 -39.640625 40.359375 -38.066406 39.355469 -36.207031 C 38.925781 -34.632812 35.921875 -27.90625 35.636719 -27.046875 C 34.917969 -25.1875 32.058594 -22.898438 30.769531 -21.039062 C 28.621094 -18.605469 25.761719 -16.171875 22.898438 -19.320312 C 21.894531 -19.894531 21.609375 -20.75 21.179688 -21.753906 C 20.609375 -22.753906 20.035156 -23.613281 20.035156 -24.617188 C 19.320312 -28.765625 18.605469 -26.332031 19.035156 -30.484375 C 19.175781 -32.34375 19.464844 -34.347656 18.746094 -36.636719 C 18.460938 -38.640625 19.605469 -39.929688 21.609375 -44.367188 C 22.898438 -47.371094 23.757812 -50.519531 24.472656 -53.667969 C 25.472656 -55.957031 26.046875 -58.535156 26.332031 -61.394531 C 27.621094 -65.976562 28.480469 -70.410156 28.910156 -74.847656 C 29.339844 -77.425781 29.769531 -79.714844 29.625 -82.289062 C 29.769531 -85.152344 30.484375 -88.15625 29.625 -91.019531 C 29.339844 -92.023438 28.765625 -93.453125 28.195312 -94.597656 C 27.90625 -96.746094 26.046875 -98.460938 23.613281 -98.75 C 21.324219 -98.605469 19.464844 -98.605469 17.171875 -97.316406 C 16.746094 -96.746094 15.742188 -96.316406 15.171875 -96.316406 C 13.167969 -96.171875 11.59375 -95.601562 9.730469 -95.3125 C 8.875 -94.882812 8.15625 -94.167969 8.445312 -93.167969 C 8.585938 -92.023438 8.300781 -91.019531 7.585938 -90.019531 C 6.726562 -87.441406 6.296875 -85.296875 5.4375 -83.007812 C 4.578125 -80 3.722656 -77.136719 3.148438 -74.277344 L 2.574219 -70.269531 C 2.574219 -69.984375 2.574219 -69.554688 2.289062 -69.265625 C 2.003906 -68.550781 2.433594 -67.980469 2.433594 -67.691406 C 2.148438 -66.40625 1.71875 -65.261719 1.859375 -63.6875 L 1.71875 -63.398438 C 1 -57.246094 0.714844 -58.535156 1.144531 -56.386719 C 0.714844 -55.097656 0.429688 -49.375 0.859375 -47.800781 C 0.574219 -47.085938 0.574219 -46.511719 0.574219 -45.652344 L 0.714844 -41.644531 C 0.859375 -37.351562 2.148438 -28.335938 2.863281 -27.046875 C 4.148438 -24.042969 5.152344 -20.464844 5.582031 -20.035156 C 7.871094 -16.601562 8.015625 -16.746094 11.59375 -14.3125 C 16.171875 -11.304688 23.042969 -11.449219 27.90625 -13.308594 Z M 18.890625 -50.375 C 18.320312 -49.945312 18.460938 -53.382812 18.460938 -53.8125 C 18.175781 -54.097656 18.890625 -57.960938 18.890625 -59.679688 L 18.460938 -69.125 C 18.320312 -75.851562 19.75 -82.433594 21.039062 -89.304688 L 21.324219 -89.304688 C 21.039062 -90.734375 23.183594 -91.878906 24.1875 -90.589844 C 28.195312 -85.152344 26.191406 -78.855469 24.757812 -72.84375 C 23.898438 -69.695312 23.757812 -66.117188 23.613281 -62.96875 C 23.183594 -59.105469 22.183594 -57.960938 21.039062 -54.238281 C 20.75 -52.378906 20.179688 -51.664062 18.890625 -50.375 Z M 18.890625 -50.375 "/></g></g></g><g fill="#fcfaea" fill-opacity="1"><g transform="translate(188.901278, 252.480016)"><g><path d="M 10.875 -60.964844 L 12.023438 -60.964844 C 14.742188 -61.109375 17.171875 -63.257812 17.746094 -66.835938 C 18.605469 -69.839844 19.035156 -73.132812 19.175781 -76.28125 C 19.175781 -77.136719 19.894531 -78.285156 19.464844 -79.285156 C 19.035156 -79.429688 18.746094 -80.144531 18.605469 -80.714844 C 18.175781 -81.574219 13.597656 -82.148438 10.875 -83.433594 C 9.730469 -84.007812 8.875 -84.582031 7.871094 -83.722656 C 6.296875 -82.433594 5.007812 -81.289062 3.863281 -79.140625 C 2.574219 -76.996094 1.71875 -74.417969 1.429688 -71.984375 C 1.71875 -71.699219 1.71875 -71.128906 1.859375 -70.554688 C 2.433594 -69.410156 2.574219 -68.121094 3.292969 -66.546875 C 5.007812 -62.398438 6.582031 -60.539062 10.875 -60.964844 Z M 17.316406 -12.878906 C 19.605469 -12.878906 21.894531 -14.3125 22.898438 -15.597656 C 23.46875 -16.316406 24.1875 -17.890625 24.757812 -18.460938 C 26.191406 -20.179688 27.476562 -21.46875 28.621094 -23.328125 C 30.054688 -25.1875 36.78125 -39.640625 37.496094 -41.933594 C 37.496094 -42.363281 37.78125 -42.648438 37.640625 -43.078125 C 37.640625 -43.363281 35.777344 -44.9375 35.207031 -43.507812 C 34.203125 -40.789062 27.046875 -26.332031 25.472656 -23.898438 C 23.757812 -21.324219 22.039062 -19.320312 19.605469 -17.316406 C 18.460938 -16.886719 17.890625 -16.746094 17.316406 -17.890625 C 16.746094 -19.605469 16.601562 -21.324219 16.601562 -23.042969 C 16.746094 -25.617188 16.746094 -28.195312 17.03125 -30.625 C 17.601562 -34.632812 17.746094 -38.785156 17.890625 -42.648438 C 18.175781 -44.222656 18.320312 -45.367188 18.320312 -46.796875 C 18.605469 -47.226562 18.605469 -47.65625 18.605469 -48.230469 C 18.460938 -48.800781 18.175781 -49.375 17.601562 -49.515625 C 17.03125 -50.089844 16.171875 -50.375 15.171875 -50.664062 C 12.59375 -51.664062 9.589844 -52.378906 7.011719 -53.238281 C 5.582031 -53.8125 4.148438 -52.953125 3.148438 -52.523438 C 2.003906 -51.949219 2.148438 -51.089844 2.148438 -49.660156 C 1.71875 -47.65625 1.574219 -45.796875 1.144531 -43.648438 C 0.574219 -42.363281 0.714844 -40.929688 0.714844 -39.5 C 0.714844 -38.496094 0.285156 -37.210938 0 -36.207031 C 0.144531 -33.917969 0.144531 -31.769531 0.574219 -29.195312 C 0.429688 -27.765625 0.714844 -26.332031 0.714844 -24.902344 C 0.714844 -23.757812 0.859375 -22.613281 1.429688 -21.753906 C 3.003906 -19.605469 4.292969 -17.746094 6.296875 -16.171875 C 7.296875 -15.597656 8.300781 -15.027344 9.160156 -14.3125 C 11.734375 -12.738281 14.3125 -12.308594 17.316406 -12.878906 Z M 17.316406 -12.878906 "/></g></g></g><g fill="#fcfaea" fill-opacity="1"><g transform="translate(220.957424, 252.480016)"><g><path d="M 19.605469 -13.167969 C 24.042969 -15.027344 27.90625 -17.460938 29.910156 -22.324219 C 30.195312 -22.898438 30.339844 -23.042969 30.769531 -23.183594 C 31.484375 -23.898438 31.628906 -23.613281 32.488281 -22.324219 C 32.488281 -22.183594 32.628906 -22.183594 32.628906 -22.039062 C 33.632812 -20.320312 35.0625 -19.320312 36.492188 -18.320312 C 37.496094 -17.460938 40.214844 -17.03125 41.359375 -16.746094 C 42.074219 -16.457031 45.082031 -17.171875 45.511719 -17.746094 C 45.796875 -18.320312 47.226562 -19.464844 48.230469 -20.035156 C 49.375 -20.75 51.949219 -24.328125 53.523438 -27.476562 C 55.097656 -30.339844 57.675781 -33.34375 59.535156 -40.359375 C 59.820312 -41.503906 60.824219 -42.503906 58.820312 -44.078125 C 57.246094 -45.367188 56.671875 -44.652344 56.386719 -43.21875 C 55.527344 -38.066406 53.667969 -36.066406 52.09375 -31.914062 C 51.378906 -30.054688 47.371094 -24.472656 47.226562 -24.042969 C 47.085938 -23.613281 45.652344 -22.898438 45.082031 -22.46875 C 42.933594 -21.179688 41.933594 -21.46875 41.214844 -21.609375 C 37.496094 -22.46875 36.066406 -24.617188 36.207031 -28.195312 C 36.066406 -29.625 35.0625 -30.769531 35.0625 -32.058594 C 34.917969 -32.628906 34.917969 -32.917969 34.917969 -33.488281 C 35.0625 -33.773438 35.0625 -34.0625 35.0625 -34.203125 C 35.0625 -36.207031 35.207031 -37.925781 35.207031 -39.929688 C 35.347656 -40.359375 35.492188 -40.789062 35.921875 -41.074219 L 36.351562 -42.648438 C 36.351562 -43.507812 36.207031 -43.9375 35.0625 -43.9375 C 34.0625 -43.9375 32.917969 -43.9375 31.769531 -43.792969 C 30.914062 -43.792969 30.339844 -43.21875 30.339844 -42.363281 C 30.195312 -39.214844 29.480469 -36.351562 29.625 -32.917969 C 29.625 -32.058594 29.339844 -31.199219 29.050781 -30.339844 C 27.476562 -27.476562 26.046875 -24.472656 23.757812 -22.039062 C 22.46875 -20.75 21.324219 -19.175781 19.464844 -18.175781 C 18.320312 -17.460938 17.746094 -17.601562 16.886719 -18.605469 C 14.882812 -20.75 13.167969 -23.042969 13.738281 -25.761719 C 14.3125 -28.050781 14.453125 -30.339844 16.027344 -32.199219 C 16.027344 -32.34375 16.171875 -32.488281 16.171875 -32.628906 C 16.601562 -34.917969 18.605469 -36.492188 19.035156 -38.785156 C 19.175781 -38.925781 19.175781 -39.070312 19.320312 -39.070312 C 20.894531 -39.929688 21.894531 -41.503906 22.753906 -43.078125 C 22.898438 -43.363281 23.183594 -43.648438 23.46875 -43.792969 C 23.757812 -44.222656 24.1875 -44.652344 24.1875 -44.9375 C 24.617188 -46.367188 25.472656 -47.085938 26.476562 -47.65625 C 27.621094 -48.371094 29.769531 -49.089844 30.484375 -49.660156 C 31.054688 -50.234375 31.484375 -50.804688 31.914062 -51.089844 C 32.917969 -51.808594 33.203125 -52.378906 32.773438 -53.523438 C 31.769531 -55.8125 30.054688 -57.386719 27.765625 -58.390625 C 26.621094 -58.960938 25.761719 -59.25 24.757812 -59.679688 C 23.042969 -60.679688 22.183594 -59.964844 20.179688 -60.679688 C 18.890625 -61.109375 17.316406 -60.964844 16.171875 -61.824219 C 15.742188 -62.253906 15.027344 -61.96875 14.882812 -61.394531 C 14.167969 -60.109375 13.023438 -59.25 12.308594 -58.390625 C 9.160156 -54.957031 5.867188 -51.519531 3.863281 -47.226562 C 2.148438 -43.507812 0.574219 -39.785156 0.429688 -35.636719 C 0.285156 -32.488281 -1 -23.898438 3.863281 -18.890625 C 6.152344 -16.601562 9.015625 -14.882812 12.449219 -14.453125 C 14.597656 -14.3125 16.746094 -13.882812 18.746094 -13.308594 C 19.035156 -13.167969 19.320312 -13.167969 19.605469 -13.167969 Z M 19.605469 -13.167969 "/></g></g></g></svg>