<svg xmlns="http://www.w3.org/2000/svg" xmlns:xlink="http://www.w3.org/1999/xlink" width="293" zoomAndPan="magnify" viewBox="0 0 219.75 184.499994" height="246" preserveAspectRatio="xMidYMid meet" version="1.0"><defs><g/><clipPath id="3d94e65993"><path d="M 216 41 L 219 41 L 219 47 L 216 47 Z M 216 41 " clip-rule="nonzero"/></clipPath><clipPath id="2d01070f54"><path d="M 173.457031 183.480469 L 31.53125 135.660156 L 76.957031 0.832031 L 218.882812 48.652344 Z M 173.457031 183.480469 " clip-rule="nonzero"/></clipPath><clipPath id="c06a456db6"><path d="M 51 18 L 201 18 L 201 163 L 51 163 Z M 51 18 " clip-rule="nonzero"/></clipPath><clipPath id="823df8e980"><path d="M 173.457031 183.480469 L 31.53125 135.660156 L 76.957031 0.832031 L 218.882812 48.652344 Z M 173.457031 183.480469 " clip-rule="nonzero"/></clipPath><clipPath id="3a03ca105d"><path d="M 173.457031 183.480469 L 31.53125 135.660156 L 76.957031 0.832031 L 218.882812 48.652344 Z M 173.457031 183.480469 " clip-rule="nonzero"/></clipPath><clipPath id="9756e3e509"><path d="M 173.457031 183.480469 L 31.53125 135.660156 L 76.957031 0.832031 L 218.882812 48.652344 Z M 173.457031 183.480469 " clip-rule="nonzero"/></clipPath><clipPath id="ff6c48f509"><path d="M 173.496094 183.691406 L 30.871094 135.636719 L 76.53125 0.117188 L 219.15625 48.171875 Z M 173.496094 183.691406 " clip-rule="nonzero"/></clipPath><clipPath id="956728714b"><path d="M 173.492188 183.375 L 31.53125 135.542969 L 76.890625 0.917969 L 218.851562 48.746094 Z M 173.492188 183.375 " clip-rule="nonzero"/></clipPath></defs><g fill="#66b3d6" fill-opacity="1"><g transform="translate(4.144936, 88.161528)"><g><path d="M 6.402344 -20.488281 C 4.753906 -20.488281 3.523438 -20.042969 2.710938 -19.175781 C 1.871094 -18.28125 1.480469 -17.050781 1.480469 -15.457031 C 1.480469 -14.871094 1.539062 -14.339844 1.648438 -13.835938 C 1.761719 -13.332031 1.984375 -12.832031 2.265625 -12.328125 C 2.542969 -11.824219 2.933594 -11.320312 3.410156 -10.816406 C 3.859375 -10.316406 4.445312 -9.753906 5.144531 -9.195312 C 5.675781 -8.75 6.121094 -8.332031 6.484375 -7.9375 C 6.847656 -7.546875 7.15625 -7.210938 7.378906 -6.875 C 7.601562 -6.542969 7.742188 -6.207031 7.855469 -5.871094 C 7.9375 -5.535156 7.996094 -5.171875 7.996094 -4.835938 C 7.996094 -4.109375 7.828125 -3.605469 7.519531 -3.328125 C 7.210938 -3.019531 6.792969 -2.878906 6.261719 -2.878906 C 5.703125 -2.878906 5.285156 -3.019531 5.003906 -3.328125 C 4.695312 -3.605469 4.554688 -4.109375 4.554688 -4.835938 L 4.554688 -5.648438 C 4.554688 -5.8125 4.472656 -5.953125 4.359375 -6.066406 C 4.222656 -6.179688 4.082031 -6.261719 3.914062 -6.261719 L 2.011719 -6.261719 C 1.84375 -6.261719 1.675781 -6.179688 1.566406 -6.066406 C 1.453125 -5.953125 1.398438 -5.8125 1.398438 -5.648438 L 1.398438 -5.03125 C 1.398438 -3.410156 1.816406 -2.152344 2.65625 -1.285156 C 3.496094 -0.417969 4.722656 0 6.375 0 C 7.996094 0 9.226562 -0.417969 10.0625 -1.285156 C 10.902344 -2.152344 11.320312 -3.410156 11.320312 -5.03125 C 11.320312 -5.589844 11.238281 -6.148438 11.125 -6.652344 C 11.015625 -7.15625 10.816406 -7.632812 10.539062 -8.132812 C 10.257812 -8.636719 9.867188 -9.140625 9.390625 -9.644531 C 8.917969 -10.148438 8.332031 -10.707031 7.660156 -11.292969 C 7.101562 -11.742188 6.652344 -12.132812 6.289062 -12.523438 C 5.925781 -12.914062 5.648438 -13.277344 5.421875 -13.613281 C 5.199219 -13.949219 5.03125 -14.257812 4.949219 -14.589844 C 4.835938 -14.925781 4.808594 -15.261719 4.808594 -15.652344 C 4.808594 -16.351562 4.949219 -16.855469 5.226562 -17.164062 C 5.507812 -17.472656 5.925781 -17.640625 6.484375 -17.640625 C 7.015625 -17.640625 7.4375 -17.472656 7.714844 -17.164062 C 7.996094 -16.855469 8.132812 -16.351562 8.132812 -15.652344 L 8.132812 -15.457031 C 8.132812 -15.261719 8.191406 -15.09375 8.300781 -14.984375 C 8.414062 -14.871094 8.582031 -14.816406 8.777344 -14.816406 L 10.648438 -14.816406 C 10.816406 -14.816406 10.984375 -14.871094 11.097656 -14.984375 C 11.210938 -15.09375 11.292969 -15.261719 11.292969 -15.457031 C 11.292969 -17.050781 10.875 -18.28125 10.0625 -19.175781 C 9.226562 -20.042969 8.023438 -20.488281 6.402344 -20.488281 Z M 6.402344 -20.488281 "/></g></g></g><g fill="#66b3d6" fill-opacity="1"><g transform="translate(16.863217, 88.161528)"><g><path d="M 10.148438 -19.679688 L 10.148438 -12.636719 C 10.148438 -12.410156 10.0625 -12.214844 9.894531 -12.046875 C 9.726562 -11.878906 9.558594 -11.824219 9.335938 -11.824219 L 5.367188 -11.824219 C 5.144531 -11.824219 4.949219 -11.878906 4.78125 -12.046875 C 4.613281 -12.214844 4.554688 -12.410156 4.554688 -12.636719 L 4.554688 -19.679688 C 4.554688 -19.902344 4.472656 -20.070312 4.304688 -20.238281 C 4.136719 -20.40625 3.96875 -20.488281 3.746094 -20.488281 L 2.207031 -20.488281 C 1.984375 -20.488281 1.789062 -20.40625 1.621094 -20.238281 C 1.453125 -20.070312 1.398438 -19.902344 1.398438 -19.679688 L 1.398438 -0.8125 C 1.398438 -0.585938 1.453125 -0.390625 1.621094 -0.222656 C 1.789062 -0.0546875 1.984375 0 2.207031 0 L 3.746094 0 C 3.96875 0 4.136719 -0.0546875 4.304688 -0.222656 C 4.472656 -0.390625 4.554688 -0.585938 4.554688 -0.8125 L 4.554688 -7.855469 C 4.554688 -8.078125 4.613281 -8.246094 4.78125 -8.414062 C 4.949219 -8.582031 5.144531 -8.664062 5.367188 -8.664062 L 9.335938 -8.664062 C 9.558594 -8.664062 9.726562 -8.582031 9.894531 -8.414062 C 10.0625 -8.246094 10.148438 -8.078125 10.148438 -7.855469 L 10.148438 -0.8125 C 10.148438 -0.585938 10.203125 -0.390625 10.371094 -0.222656 C 10.539062 -0.0546875 10.734375 0 10.984375 0 L 12.496094 0 C 12.71875 0 12.886719 -0.0546875 13.054688 -0.222656 C 13.222656 -0.390625 13.304688 -0.585938 13.304688 -0.8125 L 13.304688 -19.679688 C 13.304688 -19.902344 13.222656 -20.070312 13.054688 -20.238281 C 12.886719 -20.40625 12.71875 -20.488281 12.496094 -20.488281 L 10.984375 -20.488281 C 10.734375 -20.488281 10.539062 -20.40625 10.371094 -20.238281 C 10.203125 -20.070312 10.148438 -19.902344 10.148438 -19.679688 Z M 10.148438 -19.679688 "/></g></g></g><g fill="#66b3d6" fill-opacity="1"><g transform="translate(31.566118, 88.161528)"><g><path d="M 3.746094 -20.488281 L 2.207031 -20.488281 C 1.984375 -20.488281 1.789062 -20.40625 1.621094 -20.238281 C 1.453125 -20.070312 1.398438 -19.902344 1.398438 -19.679688 L 1.398438 -0.8125 C 1.398438 -0.585938 1.453125 -0.390625 1.621094 -0.222656 C 1.789062 -0.0546875 1.984375 0 2.207031 0 L 3.746094 0 C 3.96875 0 4.136719 -0.0546875 4.304688 -0.222656 C 4.472656 -0.390625 4.554688 -0.585938 4.554688 -0.8125 L 4.554688 -19.679688 C 4.554688 -19.902344 4.472656 -20.070312 4.304688 -20.238281 C 4.136719 -20.40625 3.96875 -20.488281 3.746094 -20.488281 Z M 3.746094 -20.488281 "/></g></g></g><g fill="#66b3d6" fill-opacity="1"><g transform="translate(37.519951, 88.161528)"><g/></g></g><g fill="#66b3d6" fill-opacity="1"><g transform="translate(45.905633, 88.161528)"><g><path d="M 9.921875 -3.160156 L 5.367188 -3.160156 C 5.144531 -3.160156 4.949219 -3.214844 4.78125 -3.382812 C 4.613281 -3.550781 4.554688 -3.746094 4.554688 -3.96875 L 4.554688 -19.679688 C 4.554688 -19.902344 4.472656 -20.070312 4.304688 -20.238281 C 4.136719 -20.40625 3.96875 -20.488281 3.746094 -20.488281 L 2.207031 -20.488281 C 1.984375 -20.488281 1.789062 -20.40625 1.621094 -20.238281 C 1.453125 -20.070312 1.398438 -19.902344 1.398438 -19.679688 L 1.398438 -0.8125 C 1.398438 -0.585938 1.453125 -0.390625 1.621094 -0.222656 C 1.789062 -0.0546875 1.984375 0 2.207031 0 L 9.921875 0 C 10.148438 0 10.316406 -0.0546875 10.484375 -0.222656 C 10.648438 -0.390625 10.734375 -0.585938 10.734375 -0.8125 L 10.734375 -2.347656 C 10.734375 -2.570312 10.648438 -2.738281 10.484375 -2.90625 C 10.316406 -3.074219 10.148438 -3.160156 9.921875 -3.160156 Z M 9.921875 -3.160156 "/></g></g></g><g fill="#66b3d6" fill-opacity="1"><g transform="translate(58.036919, 88.161528)"><g><path d="M 3.746094 -20.488281 L 2.207031 -20.488281 C 1.984375 -20.488281 1.789062 -20.40625 1.621094 -20.238281 C 1.453125 -20.070312 1.398438 -19.902344 1.398438 -19.679688 L 1.398438 -0.8125 C 1.398438 -0.585938 1.453125 -0.390625 1.621094 -0.222656 C 1.789062 -0.0546875 1.984375 0 2.207031 0 L 3.746094 0 C 3.96875 0 4.136719 -0.0546875 4.304688 -0.222656 C 4.472656 -0.390625 4.554688 -0.585938 4.554688 -0.8125 L 4.554688 -19.679688 C 4.554688 -19.902344 4.472656 -20.070312 4.304688 -20.238281 C 4.136719 -20.40625 3.96875 -20.488281 3.746094 -20.488281 Z M 3.746094 -20.488281 "/></g></g></g><g fill="#66b3d6" fill-opacity="1"><g transform="translate(63.990752, 88.161528)"><g><path d="M 13.613281 -20.488281 L 12.105469 -20.488281 C 11.878906 -20.488281 11.683594 -20.40625 11.515625 -20.238281 C 11.347656 -20.070312 11.265625 -19.902344 11.265625 -19.679688 L 11.265625 -8.191406 C 11.265625 -8.023438 11.179688 -7.910156 11.042969 -7.882812 C 10.847656 -7.828125 10.734375 -7.882812 10.679688 -8.050781 L 5.085938 -20.015625 C 4.949219 -20.320312 4.695312 -20.488281 4.359375 -20.488281 L 2.207031 -20.488281 C 1.984375 -20.488281 1.789062 -20.40625 1.621094 -20.238281 C 1.453125 -20.070312 1.398438 -19.902344 1.398438 -19.679688 L 1.398438 -0.8125 C 1.398438 -0.585938 1.453125 -0.390625 1.621094 -0.222656 C 1.789062 -0.0546875 1.984375 0 2.207031 0 L 3.71875 0 C 3.941406 0 4.136719 -0.0546875 4.304688 -0.222656 C 4.472656 -0.390625 4.554688 -0.585938 4.554688 -0.8125 L 4.554688 -12.300781 C 4.554688 -12.46875 4.640625 -12.550781 4.808594 -12.605469 C 4.976562 -12.636719 5.085938 -12.578125 5.144531 -12.4375 L 10.734375 -0.476562 C 10.875 -0.140625 11.125 0 11.460938 0 L 13.613281 0 C 13.835938 0 14.03125 -0.0820312 14.199219 -0.25 C 14.339844 -0.390625 14.425781 -0.585938 14.425781 -0.8125 L 14.425781 -19.679688 C 14.425781 -19.902344 14.339844 -20.070312 14.171875 -20.238281 C 14.003906 -20.40625 13.835938 -20.488281 13.613281 -20.488281 Z M 13.613281 -20.488281 "/></g></g></g><g fill="#66b3d6" fill-opacity="1"><g transform="translate(79.811746, 88.161528)"><g/></g></g><g fill="#66b3d6" fill-opacity="1"><g transform="translate(88.197429, 88.161528)"><g><path d="M 5.980469 -10.761719 L 1.507812 -1.175781 C 1.339844 -0.894531 1.371094 -0.644531 1.566406 -0.363281 C 1.707031 -0.113281 1.929688 0 2.234375 0 L 3.914062 0 C 4.25 0 4.5 -0.140625 4.667969 -0.476562 L 7.546875 -6.652344 C 7.574219 -6.738281 7.660156 -6.792969 7.769531 -6.792969 C 7.855469 -6.792969 7.910156 -6.738281 7.964844 -6.652344 L 10.847656 -0.476562 C 10.984375 -0.140625 11.238281 0 11.601562 0 L 13.277344 0 C 13.558594 0 13.78125 -0.113281 13.949219 -0.363281 C 14.117188 -0.644531 14.144531 -0.894531 14.003906 -1.175781 L 9.53125 -10.761719 C 9.503906 -10.816406 9.503906 -10.875 9.53125 -10.957031 L 13.445312 -19.316406 C 13.558594 -19.59375 13.558594 -19.875 13.390625 -20.097656 C 13.222656 -20.351562 13 -20.488281 12.71875 -20.488281 L 11.042969 -20.488281 C 10.679688 -20.488281 10.425781 -20.320312 10.285156 -20.015625 L 7.964844 -15.039062 C 7.910156 -14.925781 7.855469 -14.898438 7.769531 -14.898438 C 7.660156 -14.898438 7.574219 -14.925781 7.546875 -15.039062 L 5.226562 -20.015625 C 5.058594 -20.320312 4.808594 -20.488281 4.472656 -20.488281 L 2.796875 -20.488281 C 2.488281 -20.488281 2.265625 -20.351562 2.125 -20.097656 C 1.957031 -19.875 1.929688 -19.59375 2.070312 -19.316406 L 5.980469 -10.957031 C 5.980469 -10.875 5.980469 -10.816406 5.980469 -10.761719 Z M 5.980469 -10.761719 "/></g></g></g><g fill="#66b3d6" fill-opacity="1"><g transform="translate(103.710945, 88.161528)"><g><path d="M 3.746094 -20.488281 L 2.207031 -20.488281 C 1.984375 -20.488281 1.789062 -20.40625 1.621094 -20.238281 C 1.453125 -20.070312 1.398438 -19.902344 1.398438 -19.679688 L 1.398438 -0.8125 C 1.398438 -0.585938 1.453125 -0.390625 1.621094 -0.222656 C 1.789062 -0.0546875 1.984375 0 2.207031 0 L 3.746094 0 C 3.96875 0 4.136719 -0.0546875 4.304688 -0.222656 C 4.472656 -0.390625 4.554688 -0.585938 4.554688 -0.8125 L 4.554688 -19.679688 C 4.554688 -19.902344 4.472656 -20.070312 4.304688 -20.238281 C 4.136719 -20.40625 3.96875 -20.488281 3.746094 -20.488281 Z M 3.746094 -20.488281 "/></g></g></g><g clip-path="url(#c06a456db6)" class="logo-anime"><g clip-path="url(#823df8e980)"><g clip-path="url(#3a03ca105d)"><g clip-path="url(#9756e3e509)"><g clip-path="url(#ff6c48f509)"><g clip-path="url(#956728714b)"><path stroke-linecap="round" transform="matrix(-1.587837, -0.534995, 0.534555, -1.586532, 255.418849, 795.814774)" fill="none" stroke-linejoin="round" d="M 214.393173 332.268495 C 182.983874 327.909968 152.590863 362.65454 167.837932 393.066247 C 173.858698 405.075056 186.529137 411.778636 199.232443 414.283048 C 215.096813 417.408078 232.202475 414.311288 243.047278 401.56166 C 261.948939 379.341554 249.456376 337.133153 214.393173 332.268495 Z M 214.393173 332.268495 " stroke="#cbc6a3" stroke-width="1.34" stroke-opacity="1" stroke-miterlimit="1.5"/></g></g></g></g></g></g><g fill="#eb9197" fill-opacity="1"><g transform="translate(77.478372, 119.622286)"><g><path d="M 2.933594 -5.992188 C 3.320312 -6.199219 3.507812 -6.527344 3.511719 -6.9375 C 3.53125 -7.492188 3.726562 -8.054688 3.746094 -8.605469 C 3.890625 -9.59375 3.933594 -10.523438 3.371094 -11.402344 C 3.273438 -11.578125 3.179688 -11.753906 3.15625 -11.964844 C 2.996094 -12.515625 2.878906 -12.726562 2.703125 -13.21875 C 2.511719 -13.660156 2.511719 -13.660156 2.933594 -13.886719 C 3.8125 -14.363281 4.132812 -14.945312 4.496094 -15.277344 C 4.824219 -15.59375 5.101562 -15.921875 5.25 -16.320312 C 5.316406 -16.449219 5.414062 -16.773438 5.203125 -17.160156 C 5.070312 -17.40625 4.945312 -17.472656 4.726562 -17.035156 C 4.355469 -16.292969 4.183594 -16.109375 3.890625 -15.8125 C 3.558594 -15.5 3.050781 -15.179688 2.382812 -14.816406 C 2 -14.609375 1.792969 -14.90625 1.511719 -15.253906 C 1.179688 -15.617188 0.832031 -15.929688 0.515625 -16.257812 C 0.132812 -16.550781 -0.421875 -16.480469 -0.851562 -16.609375 C -0.871094 -16.644531 -0.925781 -16.660156 -0.925781 -16.660156 C -2.007812 -16.894531 -2.757812 -16.351562 -3.46875 -15.738281 C -3.679688 -15.535156 -3.9375 -15.257812 -4.054688 -14.96875 C -4.050781 -14.878906 -4.171875 -14.769531 -4.296875 -14.746094 C -4.832031 -14.730469 -5.265625 -14.359375 -5.820312 -14.375 C -6.140625 -14.382812 -6.371094 -14.304688 -6.675781 -14.277344 C -6.941406 -14.269531 -7.011719 -14.140625 -7.039062 -13.945312 C -7.070312 -13.746094 -7.082031 -13.605469 -6.988281 -13.429688 C -6.839844 -13.234375 -6.792969 -12.988281 -6.730469 -12.703125 C -6.609375 -12.226562 -6.488281 -11.746094 -6.398438 -11.25 C -5.96875 -9.53125 -5.238281 -7.925781 -3.929688 -6.683594 C -3.082031 -5.871094 -2.207031 -5.253906 -0.96875 -5.152344 C 0.429688 -5 1.722656 -5.378906 2.933594 -5.992188 Z M -0.0664062 -13.808594 C -0.6875 -13.699219 -1.410156 -13.945312 -1.710938 -14.328125 C -1.914062 -14.625 -2.03125 -14.835938 -1.84375 -15.164062 C -1.53125 -15.515625 -1.214844 -15.597656 -0.875 -15.644531 C -0.0742188 -15.757812 0.582031 -15.296875 0.902344 -14.789062 C 1.28125 -14.175781 1.28125 -14.085938 -0.0664062 -13.808594 Z M 2.121094 -7.410156 C 1.894531 -6.742188 1.308594 -6.5625 0.8125 -6.976562 C 0.667969 -7.078125 0.589844 -7.21875 0.425781 -7.359375 C 0.0703125 -7.847656 -0.199219 -8.425781 -0.238281 -9.085938 C -0.332031 -9.761719 -0.582031 -10.308594 -0.777344 -10.929688 C -0.972656 -11.457031 -1.011719 -12.027344 -1.277344 -12.519531 C -1.390625 -12.730469 -1.289062 -12.878906 -0.964844 -12.871094 C -0.410156 -12.851562 0.179688 -12.851562 0.742188 -13.066406 L 0.902344 -13.109375 C 1.734375 -13.332031 1.769531 -13.351562 1.972656 -12.640625 C 2.371094 -11.316406 2.597656 -9.894531 2.445312 -8.40625 C 2.40625 -8.0625 2.273438 -7.71875 2.121094 -7.410156 Z M 2.121094 -7.410156 "/></g></g></g><g fill="#eb9197" fill-opacity="1"><g transform="translate(87.770837, 114.057574)"><g><path d="M 2.1875 -5.359375 C 3.820312 -5.695312 5.226562 -6.457031 5.851562 -8.15625 C 5.980469 -8.5 6.167969 -8.828125 6.28125 -9.207031 C 6.839844 -11.28125 6.8125 -12.082031 6.59375 -16.183594 C 6.554688 -16.84375 6.433594 -16.734375 6.058594 -16.757812 C 5.628906 -16.796875 5.742188 -16.496094 5.730469 -16.355469 C 5.992188 -12.59375 5.898438 -12.269531 5.816406 -11.496094 C 5.78125 -10.886719 5.707031 -10.351562 5.476562 -9.769531 C 4.84375 -8.339844 4.5 -7.378906 2.902344 -6.972656 C 2.601562 -6.945312 2.453125 -7.046875 2.414062 -7.207031 C 2.339844 -7.257812 2.304688 -7.328125 2.300781 -7.417969 L 2.1875 -7.628906 C 2.046875 -8.640625 1.910156 -9.566406 2.054688 -10.554688 C 2.0625 -10.964844 2.011719 -11.394531 1.945312 -11.765625 C 1.828125 -12.066406 1.78125 -12.402344 1.773438 -12.671875 C 1.832031 -13.066406 1.714844 -13.457031 1.628906 -13.863281 C 1.5 -14.523438 1.160156 -15.066406 0.632812 -15.457031 C 0.0820312 -15.886719 -0.605469 -16.152344 -1.296875 -15.914062 C -2.089844 -15.621094 -2.898438 -15.183594 -3.191406 -14.300781 C -3.355469 -13.847656 -3.574219 -13.410156 -3.957031 -13.113281 C -4.117188 -13.574219 -4.328125 -14.050781 -4.484375 -14.507812 C -4.667969 -15.183594 -5.058594 -15.742188 -5.542969 -16.296875 C -5.878906 -16.75 -6.296875 -17.023438 -6.871094 -17.078125 C -6.996094 -17.054688 -7.105469 -17.085938 -7.179688 -17.136719 C -7.453125 -17.308594 -7.660156 -17.195312 -7.851562 -16.957031 C -8.058594 -16.753906 -8.28125 -16.40625 -8.597656 -16.234375 C -8.914062 -16.0625 -9.007812 -15.738281 -8.960938 -15.402344 C -8.894531 -14.4375 -8.6875 -13.550781 -8.144531 -12.710938 C -8.050781 -12.535156 -7.863281 -12.363281 -7.679688 -12.191406 C -7.054688 -11.621094 -6.308594 -11.164062 -5.390625 -10.976562 C -4.8125 -10.835938 -4.203125 -10.710938 -3.601562 -10.945312 C -3.496094 -11.003906 -3.371094 -11.023438 -3.25 -11.046875 C -2.964844 -11.109375 -2.851562 -10.988281 -2.84375 -10.71875 C -2.835938 -10.453125 -2.738281 -10.1875 -2.675781 -9.902344 C -2.464844 -8.335938 -1.566406 -7.097656 -0.410156 -6.132812 C 0.378906 -5.515625 1.246094 -5.167969 2.1875 -5.359375 Z M 2.1875 -5.359375 "/></g></g></g><g fill="#eb9197" fill-opacity="1"><g transform="translate(112.461555, 124.398794)"><g><path d="M 7.878906 -10.804688 C 8.585938 -12.101562 9.097656 -13.363281 9.164062 -14.804688 C 9.617188 -16.175781 9.5 -16.394531 9.457031 -18.691406 C 9.324219 -21.015625 8.96875 -23.496094 8.699219 -25.039062 C 8.597656 -25.617188 8.730469 -25.757812 7.890625 -26.007812 C 7.472656 -26.132812 7.3125 -25.90625 7.414062 -25.328125 C 7.449219 -25.136719 7.402344 -24.832031 7.410156 -24.554688 C 7.472656 -23.53125 7.523438 -22.785156 7.527344 -21.871094 C 7.6875 -21.183594 7.925781 -18.007812 7.992188 -17.621094 C 8.105469 -16.765625 7.488281 -15.304688 7.378906 -14.332031 C 7.0625 -12.964844 6.472656 -11.453125 4.738281 -12.0625 C 4.238281 -12.074219 3.953125 -12.339844 3.582031 -12.632812 C 3.160156 -12.898438 2.765625 -13.105469 2.558594 -13.488281 C 1.433594 -14.917969 1.660156 -13.84375 0.972656 -15.511719 C 0.644531 -16.25 0.339844 -17.070312 -0.402344 -17.796875 C -0.925781 -18.5 -0.753906 -19.222656 -0.902344 -21.324219 C -1.03125 -22.734375 -1.351562 -24.105469 -1.730469 -25.453125 C -1.820312 -26.53125 -2.128906 -27.628906 -2.609375 -28.773438 C -3.0625 -30.78125 -3.648438 -32.648438 -4.398438 -34.421875 C -4.765625 -35.492188 -5.070312 -36.453125 -5.65625 -37.402344 C -6.191406 -38.519531 -6.535156 -39.8125 -7.453125 -40.722656 C -7.765625 -41.046875 -8.277344 -41.472656 -8.730469 -41.789062 C -9.28125 -42.546875 -10.34375 -42.820312 -11.328125 -42.425781 C -12.171875 -41.902344 -12.878906 -41.519531 -13.484375 -40.558594 C -13.53125 -40.25 -13.824219 -39.882812 -14.039062 -39.765625 C -14.773438 -39.296875 -15.253906 -38.757812 -15.902344 -38.265625 C -16.140625 -37.925781 -16.265625 -37.503906 -15.953125 -37.183594 C -15.660156 -36.777344 -15.566406 -36.335938 -15.632812 -35.808594 C -15.429688 -34.652344 -15.148438 -33.746094 -15.003906 -32.699219 C -14.714844 -31.378906 -14.453125 -30.113281 -14.082031 -28.90625 L -13.472656 -27.265625 C -13.414062 -27.15625 -13.328125 -26.992188 -13.378906 -26.824219 C -13.339844 -26.492188 -13.058594 -26.363281 -13 -26.253906 C -12.84375 -25.707031 -12.769531 -25.183594 -12.390625 -24.613281 L -12.386719 -24.472656 C -11.394531 -21.984375 -11.769531 -22.417969 -11.164062 -21.6875 C -11.0625 -21.109375 -9.992188 -18.875 -9.503906 -18.363281 C -9.46875 -18.03125 -9.351562 -17.8125 -9.171875 -17.488281 L -8.292969 -15.992188 C -7.355469 -14.386719 -5.011719 -11.222656 -4.476562 -10.878906 C -3.367188 -10 -2.25 -8.847656 -1.996094 -8.769531 C -0.421875 -7.933594 -0.394531 -8.019531 1.464844 -7.828125 C 3.828125 -7.628906 6.410156 -9.09375 7.878906 -10.804688 Z M -3.175781 -23.050781 C -3.304688 -22.769531 -3.957031 -24.105469 -4.042969 -24.269531 C -4.210938 -24.320312 -4.734375 -25.9375 -5.089844 -26.589844 L -7.195312 -30.097656 C -8.632812 -32.625 -9.441406 -35.425781 -10.367188 -38.304688 L -10.257812 -38.363281 C -10.660156 -38.847656 -10.078125 -39.726562 -9.433594 -39.441406 C -6.789062 -38.195312 -6.257812 -35.390625 -5.5625 -32.808594 C -5.242188 -31.433594 -4.5625 -30.042969 -3.96875 -28.816406 C -3.335938 -27.257812 -3.484375 -26.613281 -3.152344 -24.964844 C -2.878906 -24.195312 -2.949219 -23.808594 -3.175781 -23.050781 Z M -3.175781 -23.050781 "/></g></g></g><g fill="#eb9197" fill-opacity="1"><g transform="translate(127.706616, 116.156417)"><g><path d="M -8.402344 -25.433594 L -7.96875 -25.667969 C -6.960938 -26.28125 -6.476562 -27.597656 -6.996094 -29.078125 C -7.289062 -30.398438 -7.800781 -31.738281 -8.394531 -32.964844 C -8.570312 -33.292969 -8.535156 -33.875 -8.902344 -34.167969 C -9.097656 -34.132812 -9.351562 -34.347656 -9.523438 -34.535156 C -9.863281 -34.773438 -11.726562 -34.050781 -13.023438 -33.980469 C -13.578125 -33.964844 -14.023438 -34.003906 -14.226562 -33.472656 C -14.5625 -32.65625 -14.816406 -31.957031 -14.808594 -30.90625 C -14.859375 -29.824219 -14.65625 -28.667969 -14.261719 -27.683594 C -14.09375 -27.632812 -13.976562 -27.414062 -13.804688 -27.226562 C -13.351562 -26.910156 -13.03125 -26.449219 -12.4375 -25.996094 C -10.929688 -24.769531 -9.949219 -24.386719 -8.402344 -25.433594 Z M 3.9375 -8.460938 C 4.808594 -8.933594 5.386719 -9.949219 5.503906 -10.644531 C 5.574219 -11.035156 5.523438 -11.78125 5.621094 -12.117188 C 5.8125 -13.066406 6.039062 -13.820312 6.089844 -14.761719 C 6.253906 -15.765625 5.839844 -22.648438 5.640625 -23.667969 C 5.550781 -23.828125 5.601562 -23.996094 5.460938 -24.132812 C 5.398438 -24.242188 4.367188 -24.457031 4.445312 -23.792969 C 4.625 -22.554688 4.875 -15.582031 4.777344 -14.332031 C 4.652344 -13 4.410156 -11.882812 3.898438 -10.621094 C 3.550781 -10.222656 3.363281 -10.050781 2.910156 -10.367188 C 2.335938 -10.902344 1.929688 -11.527344 1.578125 -12.179688 C 1.101562 -13.191406 0.570312 -14.171875 0.179688 -15.15625 C -0.425781 -16.796875 -1.226562 -18.40625 -1.964844 -19.90625 C -2.179688 -20.5625 -2.363281 -21.027344 -2.65625 -21.574219 C -2.636719 -21.796875 -2.722656 -21.957031 -2.84375 -22.175781 C -3.015625 -22.363281 -3.242188 -22.523438 -3.488281 -22.460938 C -3.824219 -22.558594 -4.210938 -22.492188 -4.648438 -22.394531 C -5.835938 -22.246094 -7.125 -21.902344 -8.28125 -21.699219 C -8.945312 -21.621094 -9.3125 -21 -9.605469 -20.628906 C -9.925781 -20.175781 -9.691406 -19.878906 -9.398438 -19.335938 C -9.148438 -18.484375 -8.820312 -17.746094 -8.542969 -16.84375 C -8.496094 -16.234375 -8.148438 -15.71875 -7.851562 -15.175781 C -7.648438 -14.792969 -7.546875 -14.214844 -7.449219 -13.777344 C -6.921875 -12.933594 -6.480469 -12.117188 -5.789062 -11.226562 C -5.546875 -10.652344 -5.144531 -10.164062 -4.851562 -9.621094 C -4.613281 -9.1875 -4.324219 -8.78125 -3.929688 -8.570312 C -2.890625 -8.078125 -2.015625 -7.636719 -0.929688 -7.449219 C -0.433594 -7.4375 0.0664062 -7.425781 0.539062 -7.328125 C 1.84375 -7.261719 2.914062 -7.625 3.9375 -8.460938 Z M 3.9375 -8.460938 "/></g></g></g><g fill="#eb9197" fill-opacity="1"><g transform="translate(139.902669, 109.562513)"><g><path d="M 7.878906 -10.804688 C 8.585938 -12.101562 9.097656 -13.363281 9.164062 -14.804688 C 9.617188 -16.175781 9.5 -16.394531 9.457031 -18.691406 C 9.324219 -21.015625 8.96875 -23.496094 8.699219 -25.039062 C 8.597656 -25.617188 8.730469 -25.757812 7.890625 -26.007812 C 7.472656 -26.132812 7.3125 -25.90625 7.414062 -25.328125 C 7.449219 -25.136719 7.402344 -24.832031 7.410156 -24.554688 C 7.472656 -23.53125 7.523438 -22.785156 7.527344 -21.871094 C 7.6875 -21.183594 7.925781 -18.007812 7.992188 -17.621094 C 8.105469 -16.765625 7.488281 -15.304688 7.378906 -14.332031 C 7.0625 -12.964844 6.472656 -11.453125 4.738281 -12.0625 C 4.238281 -12.074219 3.953125 -12.339844 3.582031 -12.632812 C 3.160156 -12.898438 2.765625 -13.105469 2.558594 -13.488281 C 1.433594 -14.917969 1.660156 -13.84375 0.972656 -15.511719 C 0.644531 -16.25 0.339844 -17.070312 -0.402344 -17.796875 C -0.925781 -18.5 -0.753906 -19.222656 -0.902344 -21.324219 C -1.03125 -22.734375 -1.351562 -24.105469 -1.730469 -25.453125 C -1.820312 -26.53125 -2.128906 -27.628906 -2.609375 -28.773438 C -3.0625 -30.78125 -3.648438 -32.648438 -4.398438 -34.421875 C -4.765625 -35.492188 -5.070312 -36.453125 -5.65625 -37.402344 C -6.191406 -38.519531 -6.535156 -39.8125 -7.453125 -40.722656 C -7.765625 -41.046875 -8.277344 -41.472656 -8.730469 -41.789062 C -9.28125 -42.546875 -10.34375 -42.820312 -11.328125 -42.425781 C -12.171875 -41.902344 -12.878906 -41.519531 -13.484375 -40.558594 C -13.53125 -40.25 -13.824219 -39.882812 -14.039062 -39.765625 C -14.773438 -39.296875 -15.253906 -38.757812 -15.902344 -38.265625 C -16.140625 -37.925781 -16.265625 -37.503906 -15.953125 -37.183594 C -15.660156 -36.777344 -15.566406 -36.335938 -15.632812 -35.808594 C -15.429688 -34.652344 -15.148438 -33.746094 -15.003906 -32.699219 C -14.714844 -31.378906 -14.453125 -30.113281 -14.082031 -28.90625 L -13.472656 -27.265625 C -13.414062 -27.15625 -13.328125 -26.992188 -13.378906 -26.824219 C -13.339844 -26.492188 -13.058594 -26.363281 -13 -26.253906 C -12.84375 -25.707031 -12.769531 -25.183594 -12.390625 -24.613281 L -12.386719 -24.472656 C -11.394531 -21.984375 -11.769531 -22.417969 -11.164062 -21.6875 C -11.0625 -21.109375 -9.992188 -18.875 -9.503906 -18.363281 C -9.46875 -18.03125 -9.351562 -17.8125 -9.171875 -17.488281 L -8.292969 -15.992188 C -7.355469 -14.386719 -5.011719 -11.222656 -4.476562 -10.878906 C -3.367188 -10 -2.25 -8.847656 -1.996094 -8.769531 C -0.421875 -7.933594 -0.394531 -8.019531 1.464844 -7.828125 C 3.828125 -7.628906 6.410156 -9.09375 7.878906 -10.804688 Z M -3.175781 -23.050781 C -3.304688 -22.769531 -3.957031 -24.105469 -4.042969 -24.269531 C -4.210938 -24.320312 -4.734375 -25.9375 -5.089844 -26.589844 L -7.195312 -30.097656 C -8.632812 -32.625 -9.441406 -35.425781 -10.367188 -38.304688 L -10.257812 -38.363281 C -10.660156 -38.847656 -10.078125 -39.726562 -9.433594 -39.441406 C -6.789062 -38.195312 -6.257812 -35.390625 -5.5625 -32.808594 C -5.242188 -31.433594 -4.5625 -30.042969 -3.96875 -28.816406 C -3.335938 -27.257812 -3.484375 -26.613281 -3.152344 -24.964844 C -2.878906 -24.195312 -2.949219 -23.808594 -3.175781 -23.050781 Z M -3.175781 -23.050781 "/></g></g></g><g fill="#eb9197" fill-opacity="1"><g transform="translate(155.147731, 101.320137)"><g><path d="M -8.402344 -25.433594 L -7.96875 -25.667969 C -6.960938 -26.28125 -6.476562 -27.597656 -6.996094 -29.078125 C -7.289062 -30.398438 -7.800781 -31.738281 -8.394531 -32.964844 C -8.570312 -33.292969 -8.535156 -33.875 -8.902344 -34.167969 C -9.097656 -34.132812 -9.351562 -34.347656 -9.523438 -34.535156 C -9.863281 -34.773438 -11.726562 -34.050781 -13.023438 -33.980469 C -13.578125 -33.964844 -14.023438 -34.003906 -14.226562 -33.472656 C -14.5625 -32.65625 -14.816406 -31.957031 -14.808594 -30.90625 C -14.859375 -29.824219 -14.65625 -28.667969 -14.261719 -27.683594 C -14.09375 -27.632812 -13.976562 -27.414062 -13.804688 -27.226562 C -13.351562 -26.910156 -13.03125 -26.449219 -12.4375 -25.996094 C -10.929688 -24.769531 -9.949219 -24.386719 -8.402344 -25.433594 Z M 3.9375 -8.460938 C 4.808594 -8.933594 5.386719 -9.949219 5.503906 -10.644531 C 5.574219 -11.035156 5.523438 -11.78125 5.621094 -12.117188 C 5.8125 -13.066406 6.039062 -13.820312 6.089844 -14.761719 C 6.253906 -15.765625 5.839844 -22.648438 5.640625 -23.667969 C 5.550781 -23.828125 5.601562 -23.996094 5.460938 -24.132812 C 5.398438 -24.242188 4.367188 -24.457031 4.445312 -23.792969 C 4.625 -22.554688 4.875 -15.582031 4.777344 -14.332031 C 4.652344 -13 4.410156 -11.882812 3.898438 -10.621094 C 3.550781 -10.222656 3.363281 -10.050781 2.910156 -10.367188 C 2.335938 -10.902344 1.929688 -11.527344 1.578125 -12.179688 C 1.101562 -13.191406 0.570312 -14.171875 0.179688 -15.15625 C -0.425781 -16.796875 -1.226562 -18.40625 -1.964844 -19.90625 C -2.179688 -20.5625 -2.363281 -21.027344 -2.65625 -21.574219 C -2.636719 -21.796875 -2.722656 -21.957031 -2.84375 -22.175781 C -3.015625 -22.363281 -3.242188 -22.523438 -3.488281 -22.460938 C -3.824219 -22.558594 -4.210938 -22.492188 -4.648438 -22.394531 C -5.835938 -22.246094 -7.125 -21.902344 -8.28125 -21.699219 C -8.945312 -21.621094 -9.3125 -21 -9.605469 -20.628906 C -9.925781 -20.175781 -9.691406 -19.878906 -9.398438 -19.335938 C -9.148438 -18.484375 -8.820312 -17.746094 -8.542969 -16.84375 C -8.496094 -16.234375 -8.148438 -15.71875 -7.851562 -15.175781 C -7.648438 -14.792969 -7.546875 -14.214844 -7.449219 -13.777344 C -6.921875 -12.933594 -6.480469 -12.117188 -5.789062 -11.226562 C -5.546875 -10.652344 -5.144531 -10.164062 -4.851562 -9.621094 C -4.613281 -9.1875 -4.324219 -8.78125 -3.929688 -8.570312 C -2.890625 -8.078125 -2.015625 -7.636719 -0.929688 -7.449219 C -0.433594 -7.4375 0.0664062 -7.425781 0.539062 -7.328125 C 1.84375 -7.261719 2.914062 -7.625 3.9375 -8.460938 Z M 3.9375 -8.460938 "/></g></g></g></svg>