<svg xmlns="http://www.w3.org/2000/svg" xmlns:xlink="http://www.w3.org/1999/xlink" width="120" zoomAndPan="magnify" viewBox="0 0 175.5 167.999997" height="120" preserveAspectRatio="xMidYMid meet" version="1.0"><defs><g/><clipPath id="e11b36350e"><path d="M 15 41 L 166 41 L 166 134 L 15 134 Z M 15 41 " clip-rule="nonzero"/></clipPath><clipPath id="6753185744"><path d="M 114.058594 167.90625 L -0.0664062 86.386719 L 61.398438 0.335938 L 175.523438 81.851562 Z M 114.058594 167.90625 " clip-rule="nonzero"/></clipPath><clipPath id="590f3f8915"><path d="M 114.058594 167.90625 L -0.0664062 86.386719 L 61.398438 0.335938 L 175.523438 81.851562 Z M 114.058594 167.90625 " clip-rule="nonzero"/></clipPath></defs><g clip-path="url(#e11b36350e)"><g clip-path="url(#6753185744)"><g clip-path="url(#590f3f8915)"><path fill="#1b3d2f" d="M 158.867188 104.796875 C 154.28125 111.019531 148.5625 116.046875 142.292969 120.492188 C 137.042969 124.21875 131.449219 127.3125 125.371094 129.472656 C 118.199219 132.03125 110.804688 133.28125 103.191406 133.226562 C 94.46875 133.167969 85.949219 131.742188 77.503906 129.582031 C 70.898438 127.878906 64.367188 125.960938 57.910156 123.824219 C 53.585938 122.398438 49.335938 120.71875 45.433594 118.398438 C 42.035156 116.421875 38.839844 114.160156 35.84375 111.617188 C 29.449219 106.097656 24.179688 99.652344 20.039062 92.289062 C 16.632812 86.242188 14.710938 79.769531 15.242188 72.71875 C 15.742188 66.167969 18.335938 60.585938 22.894531 55.878906 C 27.160156 51.46875 32.386719 48.601562 38.066406 46.488281 C 45.578125 43.722656 53.429688 42.425781 61.371094 41.777344 C 76.660156 40.53125 91.671875 42.484375 106.5 46.089844 C 119.511719 49.257812 131.917969 54.007812 143.71875 60.332031 C 146.984375 62.078125 150.085938 64.136719 153.214844 66.136719 C 156.300781 68.105469 158.804688 70.746094 160.902344 73.699219 C 164.785156 79.195312 166.15625 85.316406 164.808594 91.945312 C 163.832031 96.695312 161.851562 100.976562 158.867188 104.796875 Z M 158.867188 104.796875 " fill-opacity="1" fill-rule="nonzero"/></g></g></g><g fill="#fcfaea" fill-opacity="1"><g transform="translate(21.879002, 118.820362)"><g><path d="M 16.03125 -50.96875 L 20.921875 -50.96875 L 20.921875 16.15625 L 16.03125 16.15625 Z M 16.03125 -50.96875 "/></g></g></g><g fill="#fcfaea" fill-opacity="1"><g transform="translate(58.826135, 118.820362)"><g><path d="M 13.078125 -6.238281 C 14.417969 -7.109375 15.558594 -8.046875 16.363281 -9.386719 C 17.503906 -10.460938 17.503906 -10.730469 18.640625 -12.941406 C 19.714844 -15.222656 20.652344 -17.769531 21.191406 -19.378906 C 21.390625 -19.984375 21.59375 -20.050781 20.921875 -20.722656 C 20.585938 -21.054688 20.320312 -20.921875 20.117188 -20.320312 C 20.050781 -20.117188 19.847656 -19.847656 19.714844 -19.582031 C 19.246094 -18.574219 18.910156 -17.835938 18.441406 -16.964844 C 18.238281 -16.226562 16.832031 -13.078125 16.699219 -12.675781 C 16.363281 -11.800781 15.019531 -10.730469 14.417969 -9.859375 C 13.410156 -8.71875 12.070312 -7.578125 10.730469 -9.054688 C 10.261719 -9.320312 10.125 -9.722656 9.925781 -10.191406 C 9.65625 -10.664062 9.386719 -11.066406 9.386719 -11.535156 C 9.054688 -13.480469 8.71875 -12.339844 8.917969 -14.285156 C 8.984375 -15.15625 9.121094 -16.09375 8.785156 -17.167969 C 8.652344 -18.105469 9.1875 -18.710938 10.125 -20.789062 C 10.730469 -22.195312 11.132812 -23.671875 11.46875 -25.148438 C 11.9375 -26.21875 12.203125 -27.425781 12.339844 -28.769531 C 12.941406 -30.914062 13.34375 -32.992188 13.546875 -35.070312 C 13.746094 -36.277344 13.949219 -37.351562 13.882812 -38.558594 C 13.949219 -39.898438 14.285156 -41.308594 13.882812 -42.648438 C 13.746094 -43.117188 13.480469 -43.789062 13.210938 -44.324219 C 13.078125 -45.332031 12.203125 -46.136719 11.066406 -46.269531 C 9.992188 -46.203125 9.121094 -46.203125 8.046875 -45.597656 C 7.847656 -45.332031 7.375 -45.128906 7.109375 -45.128906 C 6.167969 -45.0625 5.433594 -44.792969 4.558594 -44.660156 C 4.15625 -44.460938 3.824219 -44.125 3.957031 -43.65625 C 4.023438 -43.117188 3.890625 -42.648438 3.554688 -42.179688 C 3.152344 -40.972656 2.949219 -39.964844 2.546875 -38.894531 C 2.144531 -37.484375 1.742188 -36.144531 1.476562 -34.804688 L 1.207031 -32.925781 C 1.207031 -32.792969 1.207031 -32.589844 1.074219 -32.457031 C 0.9375 -32.121094 1.140625 -31.851562 1.140625 -31.71875 C 1.007812 -31.113281 0.804688 -30.578125 0.871094 -29.839844 L 0.804688 -29.707031 C 0.46875 -26.824219 0.335938 -27.425781 0.535156 -26.421875 C 0.335938 -25.816406 0.203125 -23.136719 0.402344 -22.398438 C 0.269531 -22.0625 0.269531 -21.792969 0.269531 -21.390625 L 0.335938 -19.515625 C 0.402344 -17.503906 1.007812 -13.277344 1.339844 -12.675781 C 1.945312 -11.265625 2.414062 -9.589844 2.617188 -9.386719 C 3.6875 -7.777344 3.753906 -7.847656 5.433594 -6.707031 C 7.578125 -5.296875 10.796875 -5.363281 13.078125 -6.238281 Z M 8.851562 -23.605469 C 8.582031 -23.402344 8.652344 -25.011719 8.652344 -25.214844 C 8.515625 -25.347656 8.851562 -27.160156 8.851562 -27.964844 L 8.652344 -32.390625 C 8.582031 -35.539062 9.253906 -38.625 9.859375 -41.84375 L 9.992188 -41.84375 C 9.859375 -42.515625 10.863281 -43.050781 11.332031 -42.449219 C 13.210938 -39.898438 12.273438 -36.949219 11.601562 -34.132812 C 11.199219 -32.65625 11.132812 -30.980469 11.066406 -29.503906 C 10.863281 -27.695312 10.394531 -27.160156 9.859375 -25.414062 C 9.722656 -24.542969 9.457031 -24.207031 8.851562 -23.605469 Z M 8.851562 -23.605469 "/></g></g></g><g fill="#fcfaea" fill-opacity="1"><g transform="translate(77.601447, 118.820362)"><g><path d="M 5.097656 -28.566406 L 5.632812 -28.566406 C 6.90625 -28.632812 8.046875 -29.640625 8.316406 -31.316406 C 8.71875 -32.722656 8.917969 -34.265625 8.984375 -35.742188 C 8.984375 -36.144531 9.320312 -36.679688 9.121094 -37.148438 C 8.917969 -37.21875 8.785156 -37.550781 8.71875 -37.820312 C 8.515625 -38.222656 6.371094 -38.492188 5.097656 -39.09375 C 4.558594 -39.363281 4.15625 -39.632812 3.6875 -39.230469 C 2.949219 -38.625 2.347656 -38.089844 1.8125 -37.082031 C 1.207031 -36.078125 0.804688 -34.871094 0.671875 -33.730469 C 0.804688 -33.597656 0.804688 -33.328125 0.871094 -33.058594 C 1.140625 -32.523438 1.207031 -31.917969 1.542969 -31.183594 C 2.347656 -29.238281 3.085938 -28.367188 5.097656 -28.566406 Z M 8.113281 -6.035156 C 9.1875 -6.035156 10.261719 -6.707031 10.730469 -7.308594 C 10.996094 -7.644531 11.332031 -8.382812 11.601562 -8.652344 C 12.273438 -9.457031 12.875 -10.058594 13.410156 -10.929688 C 14.082031 -11.800781 17.234375 -18.574219 17.570312 -19.648438 C 17.570312 -19.847656 17.703125 -19.984375 17.636719 -20.183594 C 17.636719 -20.320312 16.765625 -21.054688 16.496094 -20.386719 C 16.027344 -19.113281 12.675781 -12.339844 11.9375 -11.199219 C 11.132812 -9.992188 10.328125 -9.054688 9.1875 -8.113281 C 8.652344 -7.914062 8.382812 -7.847656 8.113281 -8.382812 C 7.847656 -9.1875 7.777344 -9.992188 7.777344 -10.796875 C 7.847656 -12.003906 7.847656 -13.210938 7.980469 -14.351562 C 8.25 -16.226562 8.316406 -18.171875 8.382812 -19.984375 C 8.515625 -20.722656 8.582031 -21.257812 8.582031 -21.929688 C 8.71875 -22.128906 8.71875 -22.332031 8.71875 -22.597656 C 8.652344 -22.867188 8.515625 -23.136719 8.25 -23.203125 C 7.980469 -23.46875 7.578125 -23.605469 7.109375 -23.738281 C 5.902344 -24.207031 4.492188 -24.542969 3.285156 -24.945312 C 2.617188 -25.214844 1.945312 -24.8125 1.476562 -24.609375 C 0.9375 -24.34375 1.007812 -23.941406 1.007812 -23.269531 C 0.804688 -22.332031 0.738281 -21.457031 0.535156 -20.453125 C 0.269531 -19.847656 0.335938 -19.179688 0.335938 -18.507812 C 0.335938 -18.039062 0.132812 -17.433594 0 -16.964844 C 0.0664062 -15.894531 0.0664062 -14.886719 0.269531 -13.679688 C 0.203125 -13.007812 0.335938 -12.339844 0.335938 -11.667969 C 0.335938 -11.132812 0.402344 -10.59375 0.671875 -10.191406 C 1.410156 -9.1875 2.011719 -8.316406 2.949219 -7.578125 C 3.421875 -7.308594 3.890625 -7.042969 4.292969 -6.707031 C 5.5 -5.96875 6.707031 -5.765625 8.113281 -6.035156 Z M 8.113281 -6.035156 "/></g></g></g><g fill="#fcfaea" fill-opacity="1"><g transform="translate(92.621702, 118.820362)"><g><path d="M 13.078125 -6.238281 C 14.417969 -7.109375 15.558594 -8.046875 16.363281 -9.386719 C 17.503906 -10.460938 17.503906 -10.730469 18.640625 -12.941406 C 19.714844 -15.222656 20.652344 -17.769531 21.191406 -19.378906 C 21.390625 -19.984375 21.59375 -20.050781 20.921875 -20.722656 C 20.585938 -21.054688 20.320312 -20.921875 20.117188 -20.320312 C 20.050781 -20.117188 19.847656 -19.847656 19.714844 -19.582031 C 19.246094 -18.574219 18.910156 -17.835938 18.441406 -16.964844 C 18.238281 -16.226562 16.832031 -13.078125 16.699219 -12.675781 C 16.363281 -11.800781 15.019531 -10.730469 14.417969 -9.859375 C 13.410156 -8.71875 12.070312 -7.578125 10.730469 -9.054688 C 10.261719 -9.320312 10.125 -9.722656 9.925781 -10.191406 C 9.65625 -10.664062 9.386719 -11.066406 9.386719 -11.535156 C 9.054688 -13.480469 8.71875 -12.339844 8.917969 -14.285156 C 8.984375 -15.15625 9.121094 -16.09375 8.785156 -17.167969 C 8.652344 -18.105469 9.1875 -18.710938 10.125 -20.789062 C 10.730469 -22.195312 11.132812 -23.671875 11.46875 -25.148438 C 11.9375 -26.21875 12.203125 -27.425781 12.339844 -28.769531 C 12.941406 -30.914062 13.34375 -32.992188 13.546875 -35.070312 C 13.746094 -36.277344 13.949219 -37.351562 13.882812 -38.558594 C 13.949219 -39.898438 14.285156 -41.308594 13.882812 -42.648438 C 13.746094 -43.117188 13.480469 -43.789062 13.210938 -44.324219 C 13.078125 -45.332031 12.203125 -46.136719 11.066406 -46.269531 C 9.992188 -46.203125 9.121094 -46.203125 8.046875 -45.597656 C 7.847656 -45.332031 7.375 -45.128906 7.109375 -45.128906 C 6.167969 -45.0625 5.433594 -44.792969 4.558594 -44.660156 C 4.15625 -44.460938 3.824219 -44.125 3.957031 -43.65625 C 4.023438 -43.117188 3.890625 -42.648438 3.554688 -42.179688 C 3.152344 -40.972656 2.949219 -39.964844 2.546875 -38.894531 C 2.144531 -37.484375 1.742188 -36.144531 1.476562 -34.804688 L 1.207031 -32.925781 C 1.207031 -32.792969 1.207031 -32.589844 1.074219 -32.457031 C 0.9375 -32.121094 1.140625 -31.851562 1.140625 -31.71875 C 1.007812 -31.113281 0.804688 -30.578125 0.871094 -29.839844 L 0.804688 -29.707031 C 0.46875 -26.824219 0.335938 -27.425781 0.535156 -26.421875 C 0.335938 -25.816406 0.203125 -23.136719 0.402344 -22.398438 C 0.269531 -22.0625 0.269531 -21.792969 0.269531 -21.390625 L 0.335938 -19.515625 C 0.402344 -17.503906 1.007812 -13.277344 1.339844 -12.675781 C 1.945312 -11.265625 2.414062 -9.589844 2.617188 -9.386719 C 3.6875 -7.777344 3.753906 -7.847656 5.433594 -6.707031 C 7.578125 -5.296875 10.796875 -5.363281 13.078125 -6.238281 Z M 8.851562 -23.605469 C 8.582031 -23.402344 8.652344 -25.011719 8.652344 -25.214844 C 8.515625 -25.347656 8.851562 -27.160156 8.851562 -27.964844 L 8.652344 -32.390625 C 8.582031 -35.539062 9.253906 -38.625 9.859375 -41.84375 L 9.992188 -41.84375 C 9.859375 -42.515625 10.863281 -43.050781 11.332031 -42.449219 C 13.210938 -39.898438 12.273438 -36.949219 11.601562 -34.132812 C 11.199219 -32.65625 11.132812 -30.980469 11.066406 -29.503906 C 10.863281 -27.695312 10.394531 -27.160156 9.859375 -25.414062 C 9.722656 -24.542969 9.457031 -24.207031 8.851562 -23.605469 Z M 8.851562 -23.605469 "/></g></g></g><g fill="#fcfaea" fill-opacity="1"><g transform="translate(111.397014, 118.820362)"><g><path d="M 5.097656 -28.566406 L 5.632812 -28.566406 C 6.90625 -28.632812 8.046875 -29.640625 8.316406 -31.316406 C 8.71875 -32.722656 8.917969 -34.265625 8.984375 -35.742188 C 8.984375 -36.144531 9.320312 -36.679688 9.121094 -37.148438 C 8.917969 -37.21875 8.785156 -37.550781 8.71875 -37.820312 C 8.515625 -38.222656 6.371094 -38.492188 5.097656 -39.09375 C 4.558594 -39.363281 4.15625 -39.632812 3.6875 -39.230469 C 2.949219 -38.625 2.347656 -38.089844 1.8125 -37.082031 C 1.207031 -36.078125 0.804688 -34.871094 0.671875 -33.730469 C 0.804688 -33.597656 0.804688 -33.328125 0.871094 -33.058594 C 1.140625 -32.523438 1.207031 -31.917969 1.542969 -31.183594 C 2.347656 -29.238281 3.085938 -28.367188 5.097656 -28.566406 Z M 8.113281 -6.035156 C 9.1875 -6.035156 10.261719 -6.707031 10.730469 -7.308594 C 10.996094 -7.644531 11.332031 -8.382812 11.601562 -8.652344 C 12.273438 -9.457031 12.875 -10.058594 13.410156 -10.929688 C 14.082031 -11.800781 17.234375 -18.574219 17.570312 -19.648438 C 17.570312 -19.847656 17.703125 -19.984375 17.636719 -20.183594 C 17.636719 -20.320312 16.765625 -21.054688 16.496094 -20.386719 C 16.027344 -19.113281 12.675781 -12.339844 11.9375 -11.199219 C 11.132812 -9.992188 10.328125 -9.054688 9.1875 -8.113281 C 8.652344 -7.914062 8.382812 -7.847656 8.113281 -8.382812 C 7.847656 -9.1875 7.777344 -9.992188 7.777344 -10.796875 C 7.847656 -12.003906 7.847656 -13.210938 7.980469 -14.351562 C 8.25 -16.226562 8.316406 -18.171875 8.382812 -19.984375 C 8.515625 -20.722656 8.582031 -21.257812 8.582031 -21.929688 C 8.71875 -22.128906 8.71875 -22.332031 8.71875 -22.597656 C 8.652344 -22.867188 8.515625 -23.136719 8.25 -23.203125 C 7.980469 -23.46875 7.578125 -23.605469 7.109375 -23.738281 C 5.902344 -24.207031 4.492188 -24.542969 3.285156 -24.945312 C 2.617188 -25.214844 1.945312 -24.8125 1.476562 -24.609375 C 0.9375 -24.34375 1.007812 -23.941406 1.007812 -23.269531 C 0.804688 -22.332031 0.738281 -21.457031 0.535156 -20.453125 C 0.269531 -19.847656 0.335938 -19.179688 0.335938 -18.507812 C 0.335938 -18.039062 0.132812 -17.433594 0 -16.964844 C 0.0664062 -15.894531 0.0664062 -14.886719 0.269531 -13.679688 C 0.203125 -13.007812 0.335938 -12.339844 0.335938 -11.667969 C 0.335938 -11.132812 0.402344 -10.59375 0.671875 -10.191406 C 1.410156 -9.1875 2.011719 -8.316406 2.949219 -7.578125 C 3.421875 -7.308594 3.890625 -7.042969 4.292969 -6.707031 C 5.5 -5.96875 6.707031 -5.765625 8.113281 -6.035156 Z M 8.113281 -6.035156 "/></g></g></g></svg>