<svg xmlns="http://www.w3.org/2000/svg" xmlns:xlink="http://www.w3.org/1999/xlink" width="500" zoomAndPan="magnify" viewBox="0 0 375 374.999991" height="500" preserveAspectRatio="xMidYMid meet" version="1.0"><defs><g/><clipPath id="aaaff0863c"><path d="M 87 60 L 344 60 L 344 308 L 87 308 Z M 87 60 " clip-rule="nonzero"/></clipPath><clipPath id="a14daceeb1"><path d="M 296.972656 344.292969 L 53.1875 262.152344 L 131.253906 30.453125 L 375.039062 112.589844 Z M 296.972656 344.292969 " clip-rule="nonzero"/></clipPath><clipPath id="ef113a2759"><path d="M 296.972656 344.292969 L 53.1875 262.152344 L 131.253906 30.453125 L 375.039062 112.589844 Z M 296.972656 344.292969 " clip-rule="nonzero"/></clipPath><clipPath id="061c91da99"><path d="M 296.972656 344.292969 L 53.1875 262.152344 L 131.253906 30.453125 L 375.039062 112.589844 Z M 296.972656 344.292969 " clip-rule="nonzero"/></clipPath><clipPath id="0a551e5283"><path d="M 297.039062 344.648438 L 52.054688 262.105469 L 130.519531 29.226562 L 375.503906 111.769531 Z M 297.039062 344.648438 " clip-rule="nonzero"/></clipPath><clipPath id="07561733fe"><path d="M 297.035156 344.101562 L 53.195312 261.941406 L 131.140625 30.601562 L 374.980469 112.761719 Z M 297.035156 344.101562 " clip-rule="nonzero"/></clipPath></defs><rect x="-37.5" width="450" fill="#ffffff" y="-37.499999" height="449.999989" fill-opacity="1"/><rect x="-37.5" width="450" fill="#ffffff" y="-37.499999" height="449.999989" fill-opacity="1"/><g fill="#66b3d6" fill-opacity="1"><g transform="translate(6.464661, 180.732848)"><g><path d="M 10.984375 -35.160156 C 8.152344 -35.160156 6.042969 -34.390625 4.652344 -32.902344 C 3.214844 -31.371094 2.542969 -29.257812 2.542969 -26.523438 C 2.542969 -25.515625 2.636719 -24.605469 2.828125 -23.742188 C 3.023438 -22.878906 3.40625 -22.015625 3.886719 -21.152344 C 4.363281 -20.289062 5.035156 -19.425781 5.851562 -18.5625 C 6.621094 -17.699219 7.625 -16.738281 8.824219 -15.78125 C 9.738281 -15.011719 10.503906 -14.292969 11.128906 -13.621094 C 11.75 -12.949219 12.277344 -12.375 12.664062 -11.800781 C 13.046875 -11.222656 13.285156 -10.648438 13.476562 -10.074219 C 13.621094 -9.496094 13.71875 -8.875 13.71875 -8.296875 C 13.71875 -7.050781 13.429688 -6.1875 12.902344 -5.707031 C 12.375 -5.179688 11.65625 -4.941406 10.746094 -4.941406 C 9.785156 -4.941406 9.066406 -5.179688 8.585938 -5.707031 C 8.058594 -6.1875 7.816406 -7.050781 7.816406 -8.296875 L 7.816406 -9.6875 C 7.816406 -9.976562 7.675781 -10.214844 7.484375 -10.410156 C 7.242188 -10.601562 7.003906 -10.746094 6.714844 -10.746094 L 3.453125 -10.746094 C 3.164062 -10.746094 2.878906 -10.601562 2.6875 -10.410156 C 2.496094 -10.214844 2.398438 -9.976562 2.398438 -9.6875 L 2.398438 -8.632812 C 2.398438 -5.851562 3.117188 -3.691406 4.558594 -2.207031 C 5.996094 -0.71875 8.105469 0 10.9375 0 C 13.71875 0 15.828125 -0.71875 17.265625 -2.207031 C 18.707031 -3.691406 19.425781 -5.851562 19.425781 -8.632812 C 19.425781 -9.59375 19.28125 -10.550781 19.089844 -11.414062 C 18.898438 -12.277344 18.5625 -13.09375 18.082031 -13.957031 C 17.601562 -14.820312 16.933594 -15.683594 16.117188 -16.546875 C 15.300781 -17.410156 14.292969 -18.371094 13.140625 -19.378906 C 12.183594 -20.144531 11.414062 -20.816406 10.792969 -21.488281 C 10.167969 -22.160156 9.6875 -22.785156 9.304688 -23.359375 C 8.921875 -23.933594 8.632812 -24.460938 8.488281 -25.039062 C 8.296875 -25.613281 8.25 -26.1875 8.25 -26.859375 C 8.25 -28.058594 8.488281 -28.921875 8.96875 -29.449219 C 9.449219 -29.976562 10.167969 -30.265625 11.128906 -30.265625 C 12.039062 -30.265625 12.757812 -29.976562 13.238281 -29.449219 C 13.71875 -28.921875 13.957031 -28.058594 13.957031 -26.859375 L 13.957031 -26.523438 C 13.957031 -26.1875 14.054688 -25.902344 14.246094 -25.710938 C 14.4375 -25.515625 14.726562 -25.421875 15.0625 -25.421875 L 18.273438 -25.421875 C 18.5625 -25.421875 18.851562 -25.515625 19.042969 -25.710938 C 19.234375 -25.902344 19.378906 -26.1875 19.378906 -26.523438 C 19.378906 -29.257812 18.660156 -31.371094 17.265625 -32.902344 C 15.828125 -34.390625 13.765625 -35.160156 10.984375 -35.160156 Z M 10.984375 -35.160156 "/></g></g></g><g fill="#66b3d6" fill-opacity="1"><g transform="translate(28.287856, 180.732848)"><g><path d="M 17.410156 -33.769531 L 17.410156 -21.679688 C 17.410156 -21.296875 17.265625 -20.960938 16.980469 -20.671875 C 16.691406 -20.386719 16.402344 -20.289062 16.019531 -20.289062 L 9.210938 -20.289062 C 8.824219 -20.289062 8.488281 -20.386719 8.203125 -20.671875 C 7.914062 -20.960938 7.816406 -21.296875 7.816406 -21.679688 L 7.816406 -33.769531 C 7.816406 -34.152344 7.675781 -34.4375 7.386719 -34.726562 C 7.097656 -35.015625 6.8125 -35.160156 6.425781 -35.160156 L 3.789062 -35.160156 C 3.40625 -35.160156 3.070312 -35.015625 2.78125 -34.726562 C 2.496094 -34.4375 2.398438 -34.152344 2.398438 -33.769531 L 2.398438 -1.390625 C 2.398438 -1.007812 2.496094 -0.671875 2.78125 -0.382812 C 3.070312 -0.0976562 3.40625 0 3.789062 0 L 6.425781 0 C 6.8125 0 7.097656 -0.0976562 7.386719 -0.382812 C 7.675781 -0.671875 7.816406 -1.007812 7.816406 -1.390625 L 7.816406 -13.476562 C 7.816406 -13.863281 7.914062 -14.148438 8.203125 -14.4375 C 8.488281 -14.726562 8.824219 -14.871094 9.210938 -14.871094 L 16.019531 -14.871094 C 16.402344 -14.871094 16.691406 -14.726562 16.980469 -14.4375 C 17.265625 -14.148438 17.410156 -13.863281 17.410156 -13.476562 L 17.410156 -1.390625 C 17.410156 -1.007812 17.507812 -0.671875 17.796875 -0.382812 C 18.082031 -0.0976562 18.417969 0 18.851562 0 L 21.441406 0 C 21.824219 0 22.113281 -0.0976562 22.398438 -0.382812 C 22.6875 -0.671875 22.832031 -1.007812 22.832031 -1.390625 L 22.832031 -33.769531 C 22.832031 -34.152344 22.6875 -34.4375 22.398438 -34.726562 C 22.113281 -35.015625 21.824219 -35.160156 21.441406 -35.160156 L 18.851562 -35.160156 C 18.417969 -35.160156 18.082031 -35.015625 17.796875 -34.726562 C 17.507812 -34.4375 17.410156 -34.152344 17.410156 -33.769531 Z M 17.410156 -33.769531 "/></g></g></g><g fill="#66b3d6" fill-opacity="1"><g transform="translate(53.516442, 180.732848)"><g><path d="M 6.425781 -35.160156 L 3.789062 -35.160156 C 3.40625 -35.160156 3.070312 -35.015625 2.78125 -34.726562 C 2.496094 -34.4375 2.398438 -34.152344 2.398438 -33.769531 L 2.398438 -1.390625 C 2.398438 -1.007812 2.496094 -0.671875 2.78125 -0.382812 C 3.070312 -0.0976562 3.40625 0 3.789062 0 L 6.425781 0 C 6.8125 0 7.097656 -0.0976562 7.386719 -0.382812 C 7.675781 -0.671875 7.816406 -1.007812 7.816406 -1.390625 L 7.816406 -33.769531 C 7.816406 -34.152344 7.675781 -34.4375 7.386719 -34.726562 C 7.097656 -35.015625 6.8125 -35.160156 6.425781 -35.160156 Z M 6.425781 -35.160156 "/></g></g></g><g fill="#66b3d6" fill-opacity="1"><g transform="translate(63.732575, 180.732848)"><g/></g></g><g fill="#66b3d6" fill-opacity="1"><g transform="translate(78.121498, 180.732848)"><g><path d="M 17.027344 -5.421875 L 9.210938 -5.421875 C 8.824219 -5.421875 8.488281 -5.515625 8.203125 -5.804688 C 7.914062 -6.089844 7.816406 -6.425781 7.816406 -6.8125 L 7.816406 -33.769531 C 7.816406 -34.152344 7.675781 -34.4375 7.386719 -34.726562 C 7.097656 -35.015625 6.8125 -35.160156 6.425781 -35.160156 L 3.789062 -35.160156 C 3.40625 -35.160156 3.070312 -35.015625 2.78125 -34.726562 C 2.496094 -34.4375 2.398438 -34.152344 2.398438 -33.769531 L 2.398438 -1.390625 C 2.398438 -1.007812 2.496094 -0.671875 2.78125 -0.382812 C 3.070312 -0.0976562 3.40625 0 3.789062 0 L 17.027344 0 C 17.410156 0 17.699219 -0.0976562 17.988281 -0.382812 C 18.273438 -0.671875 18.417969 -1.007812 18.417969 -1.390625 L 18.417969 -4.027344 C 18.417969 -4.414062 18.273438 -4.699219 17.988281 -4.988281 C 17.699219 -5.277344 17.410156 -5.421875 17.027344 -5.421875 Z M 17.027344 -5.421875 "/></g></g></g><g fill="#66b3d6" fill-opacity="1"><g transform="translate(98.937473, 180.732848)"><g><path d="M 6.425781 -35.160156 L 3.789062 -35.160156 C 3.40625 -35.160156 3.070312 -35.015625 2.78125 -34.726562 C 2.496094 -34.4375 2.398438 -34.152344 2.398438 -33.769531 L 2.398438 -1.390625 C 2.398438 -1.007812 2.496094 -0.671875 2.78125 -0.382812 C 3.070312 -0.0976562 3.40625 0 3.789062 0 L 6.425781 0 C 6.8125 0 7.097656 -0.0976562 7.386719 -0.382812 C 7.675781 -0.671875 7.816406 -1.007812 7.816406 -1.390625 L 7.816406 -33.769531 C 7.816406 -34.152344 7.675781 -34.4375 7.386719 -34.726562 C 7.097656 -35.015625 6.8125 -35.160156 6.425781 -35.160156 Z M 6.425781 -35.160156 "/></g></g></g><g fill="#66b3d6" fill-opacity="1"><g transform="translate(109.153605, 180.732848)"><g><path d="M 23.359375 -35.160156 L 20.769531 -35.160156 C 20.386719 -35.160156 20.050781 -35.015625 19.761719 -34.726562 C 19.472656 -34.4375 19.328125 -34.152344 19.328125 -33.769531 L 19.328125 -14.054688 C 19.328125 -13.765625 19.1875 -13.574219 18.945312 -13.527344 C 18.609375 -13.429688 18.417969 -13.527344 18.324219 -13.8125 L 8.730469 -34.34375 C 8.488281 -34.871094 8.058594 -35.160156 7.484375 -35.160156 L 3.789062 -35.160156 C 3.40625 -35.160156 3.070312 -35.015625 2.78125 -34.726562 C 2.496094 -34.4375 2.398438 -34.152344 2.398438 -33.769531 L 2.398438 -1.390625 C 2.398438 -1.007812 2.496094 -0.671875 2.78125 -0.382812 C 3.070312 -0.0976562 3.40625 0 3.789062 0 L 6.378906 0 C 6.761719 0 7.097656 -0.0976562 7.386719 -0.382812 C 7.675781 -0.671875 7.816406 -1.007812 7.816406 -1.390625 L 7.816406 -21.105469 C 7.816406 -21.390625 7.960938 -21.535156 8.25 -21.632812 C 8.539062 -21.679688 8.730469 -21.585938 8.824219 -21.34375 L 18.417969 -0.816406 C 18.660156 -0.238281 19.089844 0 19.664062 0 L 23.359375 0 C 23.742188 0 24.078125 -0.144531 24.367188 -0.433594 C 24.605469 -0.671875 24.75 -1.007812 24.75 -1.390625 L 24.75 -33.769531 C 24.75 -34.152344 24.605469 -34.4375 24.320312 -34.726562 C 24.03125 -35.015625 23.742188 -35.160156 23.359375 -35.160156 Z M 23.359375 -35.160156 "/></g></g></g><g fill="#66b3d6" fill-opacity="1"><g transform="translate(136.300719, 180.732848)"><g/></g></g><g fill="#66b3d6" fill-opacity="1"><g transform="translate(150.689642, 180.732848)"><g><path d="M 10.265625 -18.464844 L 2.589844 -2.015625 C 2.300781 -1.535156 2.351562 -1.101562 2.6875 -0.625 C 2.925781 -0.191406 3.308594 0 3.835938 0 L 6.714844 0 C 7.289062 0 7.722656 -0.238281 8.011719 -0.816406 L 12.949219 -11.414062 C 13 -11.558594 13.140625 -11.65625 13.335938 -11.65625 C 13.476562 -11.65625 13.574219 -11.558594 13.671875 -11.414062 L 18.609375 -0.816406 C 18.851562 -0.238281 19.28125 0 19.90625 0 L 22.785156 0 C 23.261719 0 23.648438 -0.191406 23.933594 -0.625 C 24.222656 -1.101562 24.269531 -1.535156 24.03125 -2.015625 L 16.355469 -18.464844 C 16.308594 -18.5625 16.308594 -18.660156 16.355469 -18.800781 L 23.070312 -33.144531 C 23.261719 -33.625 23.261719 -34.101562 22.976562 -34.488281 C 22.6875 -34.917969 22.304688 -35.160156 21.824219 -35.160156 L 18.945312 -35.160156 C 18.324219 -35.160156 17.890625 -34.871094 17.652344 -34.34375 L 13.671875 -25.804688 C 13.574219 -25.613281 13.476562 -25.566406 13.335938 -25.566406 C 13.140625 -25.566406 13 -25.613281 12.949219 -25.804688 L 8.96875 -34.34375 C 8.683594 -34.871094 8.25 -35.160156 7.675781 -35.160156 L 4.796875 -35.160156 C 4.269531 -35.160156 3.886719 -34.917969 3.644531 -34.488281 C 3.359375 -34.101562 3.308594 -33.625 3.550781 -33.144531 L 10.265625 -18.800781 C 10.265625 -18.660156 10.265625 -18.5625 10.265625 -18.464844 Z M 10.265625 -18.464844 "/></g></g></g><g fill="#66b3d6" fill-opacity="1"><g transform="translate(177.309158, 180.732848)"><g><path d="M 6.425781 -35.160156 L 3.789062 -35.160156 C 3.40625 -35.160156 3.070312 -35.015625 2.78125 -34.726562 C 2.496094 -34.4375 2.398438 -34.152344 2.398438 -33.769531 L 2.398438 -1.390625 C 2.398438 -1.007812 2.496094 -0.671875 2.78125 -0.382812 C 3.070312 -0.0976562 3.40625 0 3.789062 0 L 6.425781 0 C 6.8125 0 7.097656 -0.0976562 7.386719 -0.382812 C 7.675781 -0.671875 7.816406 -1.007812 7.816406 -1.390625 L 7.816406 -33.769531 C 7.816406 -34.152344 7.675781 -34.4375 7.386719 -34.726562 C 7.097656 -35.015625 6.8125 -35.160156 6.425781 -35.160156 Z M 6.425781 -35.160156 "/></g></g></g><g clip-path="url(#aaaff0863c)"><g clip-path="url(#a14daceeb1)"><g clip-path="url(#ef113a2759)"><g clip-path="url(#061c91da99)"><g clip-path="url(#0a551e5283)"><g clip-path="url(#07561733fe)"><path stroke-linecap="round" transform="matrix(-2.727417, -0.918957, 0.918569, -2.726265, 437.64036, 1396.447876)" fill="none" stroke-linejoin="round" d="M 214.392776 332.268532 C 182.983468 327.911513 152.589944 362.653365 167.838704 393.067407 C 173.857606 405.074499 186.529141 411.778646 199.232585 414.282469 C 215.096958 417.40725 232.201772 414.310984 243.047647 401.560991 C 261.948612 379.341506 249.456662 337.134561 214.392776 332.268532 Z M 214.392776 332.268532 " stroke="#cbc6a3" stroke-width="1.34" stroke-opacity="1" stroke-miterlimit="1.5"/></g></g></g></g></g></g><g fill="#eb9197" fill-opacity="1"><g transform="translate(132.295803, 234.716374)"><g><path d="M 5.035156 -10.277344 C 5.699219 -10.636719 6.019531 -11.199219 6.027344 -11.90625 C 6.058594 -12.855469 6.394531 -13.816406 6.425781 -14.769531 C 6.679688 -16.464844 6.75 -18.058594 5.78125 -19.5625 C 5.617188 -19.863281 5.457031 -20.164062 5.414062 -20.53125 C 5.136719 -21.472656 4.941406 -21.835938 4.640625 -22.683594 C 4.308594 -23.441406 4.308594 -23.441406 5.03125 -23.832031 C 6.539062 -24.644531 7.089844 -25.644531 7.714844 -26.214844 C 8.28125 -26.753906 8.753906 -27.324219 9.007812 -28.003906 C 9.121094 -28.222656 9.289062 -28.78125 8.929688 -29.445312 C 8.703125 -29.867188 8.484375 -29.980469 8.109375 -29.234375 C 7.476562 -27.957031 7.179688 -27.640625 6.675781 -27.132812 C 6.109375 -26.59375 5.238281 -26.046875 4.09375 -25.425781 C 3.429688 -25.066406 3.074219 -25.578125 2.597656 -26.175781 C 2.023438 -26.800781 1.425781 -27.332031 0.886719 -27.898438 C 0.226562 -28.398438 -0.722656 -28.277344 -1.464844 -28.496094 C -1.496094 -28.558594 -1.589844 -28.585938 -1.589844 -28.585938 C -3.441406 -28.988281 -4.730469 -28.054688 -5.953125 -27.003906 C -6.3125 -26.65625 -6.753906 -26.183594 -6.953125 -25.683594 C -6.949219 -25.53125 -7.15625 -25.339844 -7.371094 -25.304688 C -8.289062 -25.273438 -9.035156 -24.636719 -9.988281 -24.667969 C -10.539062 -24.679688 -10.933594 -24.546875 -11.453125 -24.5 C -11.914062 -24.484375 -12.027344 -24.265625 -12.078125 -23.925781 C -12.128906 -23.589844 -12.152344 -23.34375 -11.988281 -23.039062 C -11.734375 -22.710938 -11.660156 -22.285156 -11.550781 -21.796875 C -11.339844 -20.976562 -11.132812 -20.15625 -10.980469 -19.300781 C -10.242188 -16.351562 -8.988281 -13.601562 -6.746094 -11.464844 C -5.289062 -10.070312 -3.785156 -9.015625 -1.664062 -8.839844 C 0.738281 -8.578125 2.953125 -9.230469 5.035156 -10.277344 Z M -0.113281 -23.695312 C -1.183594 -23.507812 -2.421875 -23.929688 -2.933594 -24.585938 C -3.285156 -25.097656 -3.480469 -25.460938 -3.164062 -26.019531 C -2.628906 -26.621094 -2.082031 -26.761719 -1.503906 -26.839844 C -0.128906 -27.039062 1 -26.246094 1.546875 -25.375 C 2.195312 -24.324219 2.199219 -24.167969 -0.113281 -23.695312 Z M 3.640625 -12.71875 C 3.246094 -11.570312 2.246094 -11.261719 1.394531 -11.972656 C 1.144531 -12.148438 1.015625 -12.386719 0.730469 -12.625 C 0.121094 -13.464844 -0.339844 -14.460938 -0.40625 -15.59375 C -0.566406 -16.753906 -0.996094 -17.691406 -1.335938 -18.753906 C -1.671875 -19.660156 -1.734375 -20.640625 -2.191406 -21.484375 C -2.386719 -21.847656 -2.210938 -22.097656 -1.65625 -22.082031 C -0.707031 -22.054688 0.304688 -22.054688 1.273438 -22.421875 L 1.550781 -22.492188 C 2.976562 -22.875 3.039062 -22.910156 3.382812 -21.691406 C 4.070312 -19.414062 4.453125 -16.976562 4.199219 -14.421875 C 4.125 -13.835938 3.898438 -13.246094 3.640625 -12.71875 Z M 3.640625 -12.71875 "/></g></g></g><g fill="#eb9197" fill-opacity="1"><g transform="translate(149.956558, 225.167931)"><g><path d="M 3.753906 -9.195312 C 6.554688 -9.777344 8.964844 -11.078125 10.039062 -13.996094 C 10.265625 -14.585938 10.582031 -15.148438 10.777344 -15.796875 C 11.738281 -19.355469 11.691406 -20.734375 11.3125 -27.773438 C 11.246094 -28.90625 11.039062 -28.714844 10.394531 -28.753906 C 9.65625 -28.824219 9.855469 -28.308594 9.832031 -28.0625 C 10.285156 -21.609375 10.117188 -21.050781 9.976562 -19.726562 C 9.917969 -18.683594 9.792969 -17.757812 9.398438 -16.765625 C 8.3125 -14.308594 7.71875 -12.664062 4.984375 -11.964844 C 4.464844 -11.917969 4.210938 -12.09375 4.140625 -12.367188 C 4.015625 -12.453125 3.953125 -12.574219 3.945312 -12.726562 L 3.75 -13.089844 C 3.511719 -14.828125 3.277344 -16.417969 3.527344 -18.109375 C 3.535156 -18.816406 3.453125 -19.550781 3.339844 -20.191406 C 3.140625 -20.703125 3.058594 -21.285156 3.042969 -21.742188 C 3.144531 -22.421875 2.941406 -23.089844 2.796875 -23.789062 C 2.574219 -24.917969 1.992188 -25.847656 1.082031 -26.523438 C 0.140625 -27.261719 -1.039062 -27.714844 -2.222656 -27.308594 C -3.585938 -26.804688 -4.972656 -26.054688 -5.476562 -24.535156 C -5.757812 -23.761719 -6.132812 -23.011719 -6.789062 -22.503906 C -7.0625 -23.289062 -7.425781 -24.105469 -7.695312 -24.894531 C -8.007812 -26.050781 -8.683594 -27.011719 -9.511719 -27.964844 C -10.085938 -28.742188 -10.808594 -29.210938 -11.792969 -29.300781 C -12.003906 -29.265625 -12.191406 -29.320312 -12.316406 -29.40625 C -12.785156 -29.699219 -13.148438 -29.503906 -13.472656 -29.09375 C -13.828125 -28.746094 -14.207031 -28.152344 -14.75 -27.859375 C -15.292969 -27.566406 -15.457031 -27.007812 -15.378906 -26.425781 C -15.265625 -24.777344 -14.910156 -23.253906 -13.972656 -21.8125 C -13.8125 -21.511719 -13.496094 -21.214844 -13.179688 -20.917969 C -12.105469 -19.941406 -10.824219 -19.152344 -9.25 -18.835938 C -8.261719 -18.589844 -7.210938 -18.378906 -6.179688 -18.78125 C -6 -18.878906 -5.785156 -18.917969 -5.574219 -18.953125 C -5.085938 -19.0625 -4.894531 -18.851562 -4.882812 -18.394531 C -4.867188 -17.933594 -4.699219 -17.480469 -4.589844 -16.992188 C -4.230469 -14.304688 -2.6875 -12.179688 -0.703125 -10.523438 C 0.648438 -9.464844 2.136719 -8.867188 3.753906 -9.195312 Z M 3.753906 -9.195312 "/></g></g></g><g fill="#eb9197" fill-opacity="1"><g transform="translate(198.573198, 239.533502)"><g><path d="M 13.519531 -18.539062 C 14.734375 -20.765625 15.613281 -22.929688 15.726562 -25.40625 C 16.503906 -27.757812 16.304688 -28.132812 16.222656 -32.074219 C 16 -36.058594 15.390625 -40.316406 14.925781 -42.964844 C 14.75 -43.957031 14.980469 -44.199219 13.542969 -44.628906 C 12.820312 -44.84375 12.550781 -44.457031 12.722656 -43.464844 C 12.78125 -43.132812 12.703125 -42.605469 12.71875 -42.132812 C 12.820312 -40.378906 12.910156 -39.097656 12.914062 -37.527344 C 13.1875 -36.347656 13.601562 -30.898438 13.71875 -30.234375 C 13.90625 -28.769531 12.847656 -26.261719 12.660156 -24.59375 C 12.117188 -22.25 11.109375 -19.648438 8.128906 -20.695312 C 7.273438 -20.714844 6.785156 -21.175781 6.148438 -21.675781 C 5.421875 -22.128906 4.746094 -22.488281 4.390625 -23.140625 C 2.460938 -25.597656 2.851562 -23.757812 1.667969 -26.617188 C 1.101562 -27.882812 0.582031 -29.292969 -0.691406 -30.535156 C -1.585938 -31.742188 -1.292969 -32.988281 -1.550781 -36.589844 C -1.769531 -39.007812 -2.320312 -41.367188 -2.964844 -43.671875 C -3.121094 -45.523438 -3.65625 -47.40625 -4.480469 -49.375 C -5.253906 -52.820312 -6.261719 -56.019531 -7.546875 -59.066406 C -8.175781 -60.898438 -8.703125 -62.546875 -9.707031 -64.179688 C -10.621094 -66.097656 -11.214844 -68.3125 -12.785156 -69.878906 C -13.328125 -70.429688 -14.207031 -71.164062 -14.984375 -71.707031 C -15.929688 -73.007812 -17.75 -73.472656 -19.4375 -72.800781 C -20.882812 -71.898438 -22.097656 -71.242188 -23.136719 -69.59375 C -23.214844 -69.066406 -23.71875 -68.433594 -24.09375 -68.230469 C -25.347656 -67.429688 -26.175781 -66.503906 -27.289062 -65.660156 C -27.699219 -65.074219 -27.914062 -64.355469 -27.371094 -63.800781 C -26.875 -63.105469 -26.707031 -62.351562 -26.820312 -61.445312 C -26.472656 -59.460938 -25.996094 -57.90625 -25.746094 -56.109375 C -25.246094 -53.84375 -24.796875 -51.671875 -24.160156 -49.601562 L -23.121094 -46.78125 C -23.019531 -46.597656 -22.867188 -46.316406 -22.953125 -46.027344 C -22.886719 -45.460938 -22.40625 -45.238281 -22.304688 -45.050781 C -22.035156 -44.109375 -21.914062 -43.210938 -21.265625 -42.234375 L -21.257812 -41.996094 C -19.550781 -37.726562 -20.191406 -38.464844 -19.15625 -37.214844 C -18.980469 -36.222656 -17.148438 -32.382812 -16.3125 -31.507812 C -16.246094 -30.941406 -16.042969 -30.566406 -15.738281 -30.007812 L -14.230469 -27.441406 C -12.625 -24.6875 -8.601562 -19.257812 -7.679688 -18.667969 C -5.777344 -17.160156 -3.859375 -15.179688 -3.429688 -15.050781 C -0.722656 -13.617188 -0.679688 -13.761719 2.515625 -13.433594 C 6.566406 -13.089844 11 -15.605469 13.519531 -18.539062 Z M -5.449219 -39.554688 C -5.671875 -39.074219 -6.789062 -41.363281 -6.941406 -41.644531 C -7.226562 -41.730469 -8.125 -44.507812 -8.730469 -45.628906 L -12.34375 -51.640625 C -14.8125 -55.984375 -16.203125 -60.785156 -17.785156 -65.726562 L -17.597656 -65.824219 C -18.292969 -66.660156 -17.292969 -68.164062 -16.183594 -67.675781 C -11.648438 -65.542969 -10.734375 -60.722656 -9.546875 -56.292969 C -8.996094 -53.9375 -7.828125 -51.550781 -6.808594 -49.445312 C -5.726562 -46.769531 -5.976562 -45.667969 -5.410156 -42.835938 C -4.941406 -41.519531 -5.0625 -40.851562 -5.449219 -39.554688 Z M -5.449219 -39.554688 "/></g></g></g><g fill="#eb9197" fill-opacity="1"><g transform="translate(224.732075, 225.390476)"><g><path d="M -14.417969 -43.640625 L -13.671875 -44.042969 C -11.945312 -45.097656 -11.117188 -47.355469 -12.003906 -49.894531 C -12.503906 -52.160156 -13.386719 -54.460938 -14.402344 -56.566406 C -14.707031 -57.125 -14.644531 -58.125 -15.277344 -58.628906 C -15.609375 -58.570312 -16.046875 -58.9375 -16.34375 -59.261719 C -16.925781 -59.667969 -20.117188 -58.425781 -22.347656 -58.308594 C -23.296875 -58.277344 -24.0625 -58.347656 -24.410156 -57.433594 C -24.984375 -56.039062 -25.421875 -54.835938 -25.410156 -53.03125 C -25.496094 -51.175781 -25.144531 -49.1875 -24.472656 -47.5 C -24.1875 -47.414062 -23.984375 -47.039062 -23.6875 -46.71875 C -22.910156 -46.171875 -22.363281 -45.382812 -21.339844 -44.605469 C -18.753906 -42.503906 -17.070312 -41.84375 -14.417969 -43.640625 Z M 6.757812 -14.519531 C 8.253906 -15.328125 9.242188 -17.070312 9.441406 -18.265625 C 9.5625 -18.933594 9.476562 -20.214844 9.648438 -20.792969 C 9.976562 -22.417969 10.363281 -23.710938 10.453125 -25.332031 C 10.730469 -27.050781 10.019531 -38.863281 9.679688 -40.609375 C 9.527344 -40.890625 9.613281 -41.175781 9.367188 -41.40625 C 9.265625 -41.59375 7.496094 -41.964844 7.628906 -40.828125 C 7.933594 -38.699219 8.363281 -26.738281 8.195312 -24.59375 C 7.984375 -22.304688 7.570312 -20.390625 6.6875 -18.226562 C 6.089844 -17.539062 5.769531 -17.246094 4.992188 -17.789062 C 4.011719 -18.710938 3.3125 -19.78125 2.707031 -20.902344 C 1.890625 -22.632812 0.980469 -24.316406 0.308594 -26.003906 C -0.734375 -28.824219 -2.105469 -31.582031 -3.375 -34.15625 C -3.742188 -35.285156 -4.054688 -36.082031 -4.558594 -37.015625 C -4.523438 -37.398438 -4.675781 -37.679688 -4.878906 -38.050781 C -5.171875 -38.375 -5.5625 -38.648438 -5.984375 -38.539062 C -6.5625 -38.710938 -7.222656 -38.59375 -7.976562 -38.429688 C -10.011719 -38.171875 -12.226562 -37.578125 -14.210938 -37.230469 C -15.347656 -37.097656 -15.980469 -36.035156 -16.484375 -35.398438 C -17.027344 -34.621094 -16.632812 -34.113281 -16.125 -33.175781 C -15.699219 -31.71875 -15.136719 -30.453125 -14.660156 -28.898438 C -14.578125 -27.855469 -13.980469 -26.972656 -13.472656 -26.039062 C -13.121094 -25.386719 -12.945312 -24.390625 -12.78125 -23.636719 C -11.878906 -22.191406 -11.121094 -20.792969 -9.929688 -19.261719 C -9.519531 -18.277344 -8.828125 -17.445312 -8.320312 -16.507812 C -7.917969 -15.761719 -7.421875 -15.066406 -6.742188 -14.707031 C -4.957031 -13.859375 -3.460938 -13.101562 -1.597656 -12.78125 C -0.742188 -12.761719 0.113281 -12.738281 0.929688 -12.574219 C 3.164062 -12.457031 5 -13.085938 6.757812 -14.519531 Z M 6.757812 -14.519531 "/></g></g></g><g fill="#eb9197" fill-opacity="1"><g transform="translate(245.659182, 214.076051)"><g><path d="M 8.152344 -15.515625 C 10.390625 -18.296875 12.054688 -21.25 11.648438 -25.132812 C 11.632812 -25.605469 11.675781 -25.75 11.902344 -25.996094 C 12.117188 -26.714844 12.3125 -26.578125 13.328125 -26.042969 C 13.378906 -25.949219 13.472656 -26 13.523438 -25.90625 C 14.78125 -25.136719 16.070312 -24.988281 17.359375 -24.839844 C 18.316406 -24.632812 20.242188 -25.3125 21.089844 -25.53125 C 21.660156 -25.59375 23.367188 -27.125 23.445312 -27.648438 C 23.429688 -28.125 23.960938 -29.375 24.414062 -30.101562 C 24.910156 -30.972656 25.328125 -34.21875 25.242188 -36.832031 C 25.261719 -39.253906 25.882812 -42.125 24.621094 -47.359375 C 24.40625 -48.207031 24.703125 -49.214844 22.839844 -49.535156 C 21.359375 -49.820312 21.238281 -49.152344 21.554688 -48.117188 C 22.8125 -44.453125 22.304688 -42.488281 22.742188 -39.222656 C 22.933594 -37.753906 22.289062 -32.695312 22.34375 -32.367188 C 22.402344 -32.035156 21.722656 -31.0625 21.5 -30.578125 C 20.550781 -28.980469 19.796875 -28.816406 19.28125 -28.65625 C 16.546875 -27.902344 14.855469 -28.800781 13.6875 -31.183594 C 13.085938 -32.070312 12.03125 -32.464844 11.574219 -33.304688 C 11.28125 -33.628906 11.179688 -33.8125 10.976562 -34.1875 C 10.96875 -34.425781 10.867188 -34.613281 10.816406 -34.707031 C 10.109375 -36.011719 9.597656 -37.183594 8.890625 -38.492188 C 8.832031 -38.824219 8.773438 -39.15625 8.953125 -39.492188 L 8.679688 -40.671875 C 8.375 -41.234375 8.128906 -41.460938 7.382812 -41.058594 C 6.730469 -40.703125 5.980469 -40.300781 5.285156 -39.804688 C 4.722656 -39.5 4.550781 -38.925781 4.855469 -38.363281 C 5.871094 -36.257812 6.414062 -34.136719 7.722656 -31.945312 C 8.023438 -31.382812 8.140625 -30.722656 8.257812 -30.0625 C 8.238281 -27.636719 8.367188 -25.167969 7.730469 -22.773438 C 7.34375 -21.476562 7.152344 -20.046875 6.292969 -18.734375 C 5.796875 -17.863281 5.371094 -17.753906 4.457031 -18.105469 C 2.390625 -18.800781 0.460938 -19.6875 -0.125 -21.667969 C -0.558594 -23.363281 -1.273438 -24.910156 -0.902344 -26.679688 C -0.953125 -26.773438 -0.910156 -26.917969 -0.960938 -27.011719 C -1.488281 -28.65625 -0.734375 -30.390625 -1.261719 -32.039062 C -1.21875 -32.179688 -1.269531 -32.273438 -1.175781 -32.324219 C -0.453125 -33.441406 -0.355469 -34.824219 -0.347656 -36.152344 C -0.355469 -36.390625 -0.269531 -36.679688 -0.132812 -36.875 C -0.0976562 -37.253906 0.03125 -37.6875 -0.0703125 -37.875 C -0.296875 -38.960938 0.0117188 -39.730469 0.464844 -40.457031 C 0.957031 -41.328125 2.105469 -42.554688 2.371094 -43.179688 C 2.542969 -43.753906 2.621094 -44.28125 2.800781 -44.617188 C 3.203125 -45.4375 3.1875 -45.914062 2.503906 -46.511719 C 1.042969 -47.652344 -0.636719 -48.074219 -2.484375 -47.917969 C -3.433594 -47.886719 -4.09375 -47.773438 -4.902344 -47.699219 C -6.375 -47.746094 -6.683594 -46.976562 -8.242188 -46.734375 C -9.238281 -46.5625 -10.214844 -45.914062 -11.265625 -46.070312 C -11.695312 -46.199219 -12.0625 -45.757812 -11.953125 -45.335938 C -11.964844 -44.242188 -12.410156 -43.277344 -12.574219 -42.464844 C -13.417969 -39.109375 -14.355469 -35.707031 -14.148438 -32.195312 C -13.953125 -29.160156 -13.667969 -26.175781 -12.296875 -23.414062 C -11.28125 -21.308594 -9.089844 -15.25 -4.144531 -13.695312 C -1.84375 -13.011719 0.632812 -12.898438 3.027344 -13.832031 C 4.476562 -14.496094 6.03125 -14.972656 7.542969 -15.304688 C 7.777344 -15.3125 7.964844 -15.414062 8.152344 -15.515625 Z M 8.152344 -15.515625 "/></g></g></g></svg>